<svg xmlns="http://www.w3.org/2000/svg" width="21" height="22" fill="none" viewBox="0 0 21 22">
  <path fill="currentColor" d="M5.846 4.385a1 1 0 0 1 1-1h7.308a1 1 0 0 1 1 1v13.23a1 1 0 0 1-1 1H6.846a1 1 0 0 1-1-1V4.385Z"/>
  <path fill="currentColor" d="m2.25 7.564-.997-.499a.684.684 0 0 1-.378-.614V3.176c0-.262.146-.499.378-.615l1.096-.55A2.752 2.752 0 0 1 5 0h11a2.75 2.75 0 0 1 2.651 2.011l1.096.546a.69.69 0 0 1 .378.615v3.275a.684.684 0 0 1-.378.614l-.997.503v.688l.997.498a.69.69 0 0 1 .378.615v3.275a.685.685 0 0 1-.378.614l-.997.499v.687l.997.499a.684.684 0 0 1 .378.614v3.275a.685.685 0 0 1-.378.615l-1.096.546A2.752 2.752 0 0 1 16 22H5a2.752 2.752 0 0 1-2.651-2.011l-1.096-.546a.685.685 0 0 1-.378-.615v-3.275c0-.262.146-.498.378-.614l.997-.499v-.687l-.997-.499a.685.685 0 0 1-.378-.614V9.365c0-.262.146-.499.378-.615l.997-.498v-.688Zm3.438-4.813A.69.69 0 0 0 5 3.438v15.128c0 .378.31.688.688.688h9.625a.69.69 0 0 0 .687-.688V3.438a.69.69 0 0 0-.688-.687H5.688Z"/>
</svg>
