<svg xmlns="http://www.w3.org/2000/svg" width="18" height="18" fill="none" viewBox="0 0 18 18">
  <path fill="currentColor" d="m15.624 1.948.428.428a.847.847 0 0 1 0 1.201l-1.03 1.035-1.634-1.633 1.031-1.031a.847.847 0 0 1 1.201 0h.004Zm-8.191 6.99 4.754-4.758 1.633 1.633-4.758 4.754a.846.846 0 0 1-.368.216l-2.073.592.592-2.073a.848.848 0 0 1 .216-.368l.004.004ZM13.218.747l-6.99 6.986a2.531 2.531 0 0 0-.648 1.102l-1.013 3.543a.85.85 0 0 0 1.052 1.052l3.543-1.013a2.56 2.56 0 0 0 1.101-.649l6.99-6.986a2.551 2.551 0 0 0 0-3.607l-.428-.428a2.551 2.551 0 0 0-3.607 0Zm-10.1 1.381A3.118 3.118 0 0 0 0 5.246v9.636A3.118 3.118 0 0 0 3.118 18h9.636a3.118 3.118 0 0 0 3.118-3.118v-3.968a.85.85 0 0 0-.85-.85.848.848 0 0 0-.85.85v3.968c0 .783-.635 1.417-1.418 1.417H3.118A1.417 1.417 0 0 1 1.7 14.882V5.246c0-.783.634-1.417 1.417-1.417h3.968a.85.85 0 1 0 0-1.7H3.118Z"/>
</svg>
