<svg xmlns="http://www.w3.org/2000/svg" width="24" height="6" fill="none" viewBox="0 0 24 6">
  <path fill="#38B8B1" d="M23.143 2.625c0 .696-.271 1.364-.753 1.856a2.545 2.545 0 0 1-1.819.769 2.545 2.545 0 0 1-1.818-.769A2.653 2.653 0 0 1 18 2.625c0-.696.271-1.364.753-1.856A2.545 2.545 0 0 1 20.572 0c.681 0 1.335.277 1.818.769.482.492.753 1.16.753 1.856Zm-8.572 0a2.645 2.645 0 0 1-.753 1.856 2.568 2.568 0 0 1-.834.57 2.526 2.526 0 0 1-2.802-.57 2.629 2.629 0 0 1-.558-.851 2.673 2.673 0 0 1 .558-2.861 2.526 2.526 0 0 1 3.636 0c.24.244.428.533.558.851.129.319.196.66.196 1.005ZM3.43 5.25a2.545 2.545 0 0 1-1.819-.769 2.653 2.653 0 0 1-.753-1.856c0-.696.271-1.364.753-1.856A2.545 2.545 0 0 1 3.43 0c.682 0 1.336.277 1.818.769S6 1.929 6 2.625c0 .696-.27 1.364-.753 1.856a2.545 2.545 0 0 1-1.818.769Z"/>
</svg>
