<svg xmlns="http://www.w3.org/2000/svg" width="18" height="16" fill="none" viewBox="0 0 18 16">
  <path fill="currentColor" d="M9.563 2.375a6.188 6.188 0 0 0-5.896 4.307 8.666 8.666 0 0 1 3.927-.932h3.093c.31 0 .563.253.563.563a.564.564 0 0 1-.563.562H7.595a7.68 7.68 0 0 0-1.695.19 7.518 7.518 0 0 0-2.51 1.08A7.586 7.586 0 0 0 0 14.468v.562c0 .468.376.844.844.844a.842.842 0 0 0 .844-.844v-.562c0-1.712.727-3.252 1.89-4.332a6.188 6.188 0 0 0 5.984 4.613h.036C14.242 14.725 18 10.148 18 4.505a12.05 12.05 0 0 0-.742-4.204c-.091-.243-.446-.232-.57-.004a3.93 3.93 0 0 1-3.47 2.078H9.564Z"/>
</svg>
