<svg xmlns="http://www.w3.org/2000/svg" width="29" height="29" fill="none" viewBox="0 0 29 29">
  <path fill="currentColor" d="M14.404 12.47c-.224.262-.541.393-.952.393-.417 0-.737-.131-.96-.393-.225-.267-.337-.625-.337-1.072 0-.455.112-.812.336-1.074.224-.267.544-.4.961-.4.41 0 .728.133.952.4.224.262.336.62.336 1.074 0 .447-.112.805-.336 1.072Z"/>
  <path fill="currentColor" fill-rule="evenodd" d="M0 3.625C0 1.625 1.626 0 3.625 0h21.75C27.375 0 29 1.626 29 3.625v16.313c0 2-1.626 3.626-3.625 3.626h-7.856l-7.006 5.256a.917.917 0 0 1-.952.085.902.902 0 0 1-.498-.81v-4.531H3.625c-2 0-3.625-1.626-3.625-3.626V3.625Zm9.581 9.536H7.584V8.122H5.513v6.607H9.58V13.16Zm2.154 1.194a3.458 3.458 0 0 0 1.717.439c.616 0 1.182-.146 1.698-.439a3.205 3.205 0 0 0 1.232-1.213 3.366 3.366 0 0 0 .457-1.744c0-.647-.152-1.23-.457-1.745a3.156 3.156 0 0 0-1.222-1.204 3.405 3.405 0 0 0-1.708-.439c-.622 0-1.194.146-1.717.439a3.223 3.223 0 0 0-1.231 1.204 3.366 3.366 0 0 0-.458 1.745c0 .646.153 1.228.458 1.744a3.28 3.28 0 0 0 1.231 1.213Zm9.556-4.273c.15.068.265.168.346.298h2.183c-.1-.715-.423-1.281-.97-1.698-.542-.417-1.245-.625-2.11-.625-.677 0-1.268.143-1.772.43a2.887 2.887 0 0 0-1.167 1.184c-.267.51-.4 1.092-.4 1.745s.133 1.235.4 1.745c.274.51.663.908 1.167 1.194.51.28 1.107.42 1.791.42.772 0 1.41-.174 1.913-.522a4.026 4.026 0 0 0 1.185-1.27v-2.07H20.49v1.464h1.651a1.382 1.382 0 0 1-1.157.579c-.503 0-.877-.128-1.12-.383-.242-.255-.363-.64-.363-1.157 0-.448.108-.8.326-1.054.218-.262.526-.392.924-.392.212 0 .392.037.541.112Z" clip-rule="evenodd"/>
</svg>
