<svg xmlns="http://www.w3.org/2000/svg" width="29" height="29" fill="none" viewBox="0 0 29 29">
  <path fill="#38B8B1" fill-rule="evenodd" d="M29 5a5 5 0 0 0-5-5H5a5 5 0 0 0-5 5v19a5 5 0 0 0 5 5h19a5 5 0 0 0 5-5V5Zm-12.244.494a1.687 1.687 0 1 0-2.387 2.386 1.687 1.687 0 0 0 2.387-2.386Zm-6.337 5.676a1.872 1.872 0 0 1 1.319-.545c.1 0 .166.102.134.198l-1.034 3.107c-.327.984.06 2.067.942 2.619l.277.173a4.313 4.313 0 0 1 1.86 4.844 1.127 1.127 0 0 0 2.166.618l1.005-3.533a1.688 1.688 0 0 0-.728-1.895l-1.35-.844a.924.924 0 0 1-.376-1.109l.658-1.747c.06-.157.28-.16.344-.005.798 1.912 2.761 3.61 3.15 5.645.495 2.581 1.385 4.304 2.401 4.304C22.741 23 24 18.971 24 14s-1.259-9-2.813-9c-1.32 0-2.431 2.919-2.731 6.852-.037.483-.56.778-.745.33l-.222-.527a4.497 4.497 0 0 0-2.83-2.57l-1.712-.527a4.128 4.128 0 0 0-4.12 1.02l-.813.812a1.127 1.127 0 0 0 1.593 1.592l.812-.812Zm.763 6.332a3.42 3.42 0 0 1-.66-.54c-.322-.34-.987-.329-1.176.098a.53.53 0 0 1-.484.315H7.125a1.124 1.124 0 1 0 0 2.25h2.443a1.69 1.69 0 0 0 1.544-1.002l.244-.55a.457.457 0 0 0-.174-.571Z" clip-rule="evenodd"/>
</svg>
