<svg xmlns="http://www.w3.org/2000/svg" width="18" height="18" fill="none" viewBox="0 0 18 18">
  <path fill="currentColor" d="M17.434 5.857a.796.796 0 0 1-.225.865l-1.522 1.385a6.798 6.798 0 0 1 0 1.786l1.522 1.385a.797.797 0 0 1 .225.865c-.155.418-.341.82-.556 1.206l-.165.285a8.957 8.957 0 0 1-.777 1.096.796.796 0 0 1-.861.24l-1.958-.623a6.764 6.764 0 0 1-1.547.893l-.44 2.008a.794.794 0 0 1-.64.625 9.08 9.08 0 0 1-2.988 0 .794.794 0 0 1-.64-.625l-.439-2.008a6.765 6.765 0 0 1-1.547-.893l-1.955.626a.802.802 0 0 1-.86-.239 8.945 8.945 0 0 1-.778-1.097l-.165-.285a8.716 8.716 0 0 1-.556-1.206.796.796 0 0 1 .225-.864L2.31 9.896a6.803 6.803 0 0 1 0-1.79L.787 6.723a.796.796 0 0 1-.225-.865c.155-.418.341-.82.556-1.206l.165-.285c.232-.386.492-.752.777-1.096a.796.796 0 0 1 .861-.24l1.959.623a6.765 6.765 0 0 1 1.547-.893L6.866.752a.795.795 0 0 1 .64-.625 9.084 9.084 0 0 1 2.988-.004c.324.053.57.306.64.626l.44 2.007a6.79 6.79 0 0 1 1.546.893l1.959-.622a.802.802 0 0 1 .86.239c.286.345.546.71.778 1.097l.165.285c.214.386.4.787.555 1.206l-.003.003ZM9 11.812a2.812 2.812 0 1 0 0-5.624 2.812 2.812 0 0 0 0 5.625Z"/>
</svg>
