<svg xmlns="http://www.w3.org/2000/svg" width="100" height="30" fill="none" viewBox="0 0 100 30">
  <path fill="#38B8B1" fill-opacity=".42" d="M58.16 28.081c-1.37.15-2.44-.31-3.162-1.473-.702-1.13-.593-2.254.078-3.352.094-.156.214-.317.24-.489.022-.144-.03-.38-.132-.443-.122-.076-.345-.052-.498.003-.12.043-.216.187-.294.305-.95 1.441-1.045 2.941-.216 4.475.214.395.2.714-.071 1.049-1.646 2.024-4.284 2.011-5.85.391-.074-.076-.147-.152-.225-.224-.365-.337-.644-.307-.974.06-.33.366-.65.758-1.038 1.056-1.1.844-2.912.713-3.902-.239-.392-.377-.38-.56-.025-.958a47.364 47.364 0 0 0 1.73-2.027c.257-.323.543-.343.905-.288 1.315.197 2.48-.137 3.463-1.027.21-.19.398-.425.525-.676.064-.126.026-.398-.072-.486-.098-.087-.351-.078-.494-.015-.17.074-.302.243-.438.384-.669.696-1.506.98-2.452.965-.559-.01-.689-.21-.573-.758.057-.27.128-.545.116-.815-.007-.145-.157-.371-.28-.401-.126-.03-.337.102-.438.224-.11.133-.146.332-.198.508-.662 2.212-2.028 3.82-4.126 4.786-2.144.988-4.288.965-6.436-.06-.52-.249-.74-.61-.758-1.174-.07-2.223.73-4.084 2.275-5.635.58-.582.79-.554 1.515-.163.48.259 1.011.438 1.536.596.568.17.758.322.804.917.078 1.006-.172 1.904-.933 2.61-.068.062-.137.123-.2.19-.178.194-.328.414-.114.659.203.233.464.168.68.017.809-.566 1.239-1.38 1.404-2.33.075-.434.069-.89.045-1.334-.035-.637-.01-.713.568-.95.668-.276 1.238-.684 1.672-1.267.092-.124.2-.266.217-.41.017-.148-.024-.384-.123-.446-.121-.075-.347-.05-.495.01-.133.054-.225.212-.329.33-1.265 1.434-3.123 1.614-4.603.392-.966-.797-1.31-1.873-1.091-3.088.222-1.238 1.023-2.005 2.167-2.438.308-.117.558.013.786.23.316.298.636.594.97.871.14.116.314.24.482.255.181.016.457-.035.534-.157.07-.111-.041-.37-.126-.538-.053-.104-.204-.16-.313-.234-2.25-1.533-2.253-4.875.012-6.344.39-.252.835-.428 1.273-.591.413-.155.736-.006 1.028.355 1.057 1.305 2.413 1.883 4.088 1.584.177-.032.374-.086.504-.197.108-.093.206-.306.171-.427-.033-.119-.231-.233-.376-.267-.157-.037-.337.016-.506.037-1.626.2-2.916-.521-3.508-1.964-.525-1.278-.006-2.936 1.201-3.82 1.086-.796 2.25-.843 3.472-.332.133.056.262.13.4.168.371.106.594-.04.717-.52.286-1.112.957-1.918 1.947-2.452 1.251-.674 2.535-.72 3.81-.025.646.352.738.62.564 1.325-.273 1.104-.052 2.112.634 3.023.486.646.492.834.06 1.516a4.255 4.255 0 0 1-1.446 1.417c-.246.145-.494.311-.683.52-.096.107-.136.371-.069.488.068.118.31.208.46.19.21-.027.425-.137.606-.258.827-.552 1.53-1.23 2.04-2.095.366-.623.37-.627 1.102-.476a3.45 3.45 0 0 0 2.048-.193c.2-.083.404-.211.541-.373.089-.103.127-.344.065-.455-.063-.112-.275-.185-.425-.192-.145-.007-.298.085-.443.146-1.3.546-2.739.07-3.382-1.121-.653-1.21-.253-2.668.91-3.464 1.86-1.274 4.338-.564 5.473.696 1.507 1.673 1.463 3.972.392 5.412-.286.386-.69.714-1.1.973-2.185 1.375-4.4 2.701-6.583 4.08-1.385.874-2.77 1.76-4.088 2.73-1.655 1.217-3.243 2.527-4.859 3.798a1.239 1.239 0 0 0-.19.2c-.174.214-.322.456-.084.7.235.24.487.121.705-.057.354-.291.695-.598 1.053-.884.962-.768 1.887-1.59 2.902-2.282 2.88-1.965 5.767-3.925 8.71-5.793 2.999-1.903 6.166-3.488 9.653-4.32 1.054-.251 2.147-.363 3.229-.471.749-.076 1.119.516.756 1.187-.098.18-.417.334-.637.336-1.889.024-3.704.42-5.484 1-.69.225-1.401.423-2.017.99.192.071.336.144.489.177.27.059.545.091.817.14 2.117.38 3.38 2.165 3.552 3.827.187 1.8-.718 3.583-2.58 4.311-1.07.419-2.281-.056-2.948-1.082-.66-1.016-.572-2.25.22-3.093.17-.181.37-.347.488-.56.073-.131.08-.39-.004-.493-.085-.105-.332-.143-.486-.11-.166.036-.324.168-.455.29a3.446 3.446 0 0 0-1.065 1.973c-.103.57-.19.642-.773.69-.979.08-1.86.445-2.7.916-.213.12-.432.282-.558.482-.098.156-.136.44-.057.597.124.25.4.213.625.085.409-.234.789-.534 1.221-.709.517-.209 1.07-.339 1.617-.459.388-.085.69.091.871.46.588 1.197 1.553 1.87 2.863 2.052.448.062.652.334.747.75.318 1.39-.354 2.96-1.645 3.82-.86.572-1.789.847-2.837.703-.622-.085-.879.126-.818.728.167 1.651-1.097 3.338-2.963 3.62Zm-6.63-7.158c.13-.147.256-.298.39-.44 1.68-1.79 4.811-1.725 6.458.121.267.3.406.624.32 1.009-.143.639-.314 1.27-.473 1.906-.069.276-.142.581.203.71.352.13.526-.134.653-.41.071-.154.134-.315.177-.48.12-.456.238-.913.336-1.375.078-.365.282-.538.656-.543.354-.005.71-.02 1.062-.06.324-.039.65-.096.963-.187.252-.073.453-.248.382-.553-.068-.292-.315-.334-.563-.313-.261.023-.52.07-.779.114-1.008.176-1.943.116-2.615-.812a.124.124 0 0 0-.029-.027c-1.663-1.354-3.53-1.728-5.511-.972-1.822.695-2.96 2.066-3.358 4.005-.101.491.03.827.33.848.435.032.45-.337.565-.626.25-.628.527-1.245.832-1.915Zm-6.547-6.17c4.143.52 7.226-3.273 5.814-7.211-.295-.822-.244-1.498.193-2.196.153-.244.299-.493.445-.742.072-.124.184-.248.195-.38.014-.163-.007-.421-.106-.48-.13-.078-.382-.057-.527.022-.16.087-.28.274-.377.441-.27.464-.534.933-.77 1.414-.166.337-.392.443-.762.379a23.262 23.262 0 0 0-1.757-.235c-.499-.049-.76.088-.741.368.029.433.392.43.7.484.569.1 1.14.189 1.707.299.434.084.74.343.886.763.112.323.24.647.293.98.496 3.073-2.076 5.655-5.15 5.182-.208-.031-.423-.11-.621-.081-.167.024-.429.16-.442.272-.018.159.112.406.254.497.201.128.47.149.766.225Z"/>
  <path fill="#fff" d="M2.39 12.42c.406-.53.958-.976 1.657-1.338.7-.363 1.49-.544 2.37-.544 1.006 0 1.922.251 2.747.753a5.126 5.126 0 0 1 1.971 2.07c.476.893.713 1.917.713 3.075 0 1.157-.238 2.196-.713 3.116a5.386 5.386 0 0 1-1.971 2.133 5.182 5.182 0 0 1-2.747.753c-.88 0-1.664-.174-2.349-.523-.685-.362-1.244-.808-1.677-1.338v7.152H0V10.726h2.39v1.694Zm7.026 4.016c0-.795-.168-1.478-.504-2.05-.321-.585-.755-1.025-1.3-1.317a3.38 3.38 0 0 0-1.72-.46c-.6 0-1.174.153-1.719.46-.531.306-.965.752-1.3 1.338-.322.586-.482 1.276-.482 2.07 0 .795.16 1.492.482 2.092.335.585.769 1.032 1.3 1.338a3.452 3.452 0 0 0 3.44 0 3.45 3.45 0 0 0 1.3-1.38c.335-.6.503-1.297.503-2.091Zm7.187-9.662V22.25h-2.39V6.774h2.39Zm2.342 9.662c0-1.158.237-2.182.713-3.075.489-.892 1.146-1.582 1.97-2.07a5.29 5.29 0 0 1 2.769-.753c.909 0 1.698.181 2.37.544.684.348 1.23.787 1.635 1.317v-1.673h2.412V22.25h-2.412v-1.715c-.405.544-.957.997-1.657 1.36-.698.362-1.495.543-2.39.543a5.144 5.144 0 0 1-2.726-.753c-.825-.516-1.482-1.227-1.971-2.133-.476-.92-.713-1.96-.713-3.116Zm9.457.041c0-.794-.168-1.484-.503-2.07-.322-.585-.748-1.032-1.28-1.338a3.38 3.38 0 0 0-1.719-.46 3.38 3.38 0 0 0-1.72.46c-.53.292-.964.732-1.3 1.317-.321.572-.482 1.255-.482 2.05 0 .794.16 1.492.482 2.091.336.6.77 1.06 1.3 1.38.546.307 1.119.46 1.72.46a3.38 3.38 0 0 0 1.72-.46c.53-.306.957-.753 1.279-1.338.335-.6.503-1.297.503-2.091Zm11.381-5.939c.91 0 1.72.188 2.433.565a4.006 4.006 0 0 1 1.698 1.673c.406.739.609 1.631.609 2.677v6.797h-2.37v-6.442c0-1.031-.259-1.82-.776-2.363-.517-.558-1.223-.837-2.118-.837-.895 0-1.608.28-2.139.837-.517.544-.776 1.332-.776 2.363v6.442h-2.39V10.726h2.39v1.318a3.973 3.973 0 0 1 1.49-1.109 4.879 4.879 0 0 1 1.95-.397Zm10.578 2.133v6.379c0 .432.098.746.294.941.21.181.559.272 1.048.272h1.468v1.987h-1.887c-1.077 0-1.901-.251-2.475-.753-.573-.502-.86-1.318-.86-2.447v-6.38h-1.363v-1.945h1.364V7.861h2.411v2.865h2.81v1.945h-2.81Zm20.531-1.945L67.307 22.25H64.79l-2.328-8.512-2.327 8.512h-2.517l-3.607-11.524h2.433l2.411 9.265 2.454-9.265h2.495l2.35 9.223 2.39-9.223h2.348ZM73.895 9.2c-.433 0-.797-.147-1.09-.44a1.475 1.475 0 0 1-.44-1.087c0-.432.146-.795.44-1.088a1.485 1.485 0 0 1 1.09-.439c.42 0 .776.147 1.07.44.293.292.44.655.44 1.087 0 .432-.147.795-.44 1.087-.294.293-.65.44-1.07.44Zm1.175 1.526V22.25h-2.391V10.726h2.39Zm7.332 11.712c-.909 0-1.726-.16-2.453-.481-.713-.335-1.28-.78-1.699-1.338a3.381 3.381 0 0 1-.67-1.904h2.474c.041.488.272.9.692 1.234.433.32.971.481 1.614.481.671 0 1.189-.125 1.552-.376.378-.265.566-.6.566-1.004 0-.432-.21-.753-.629-.962-.405-.21-1.055-.44-1.95-.69-.867-.237-1.573-.467-2.118-.69a3.801 3.801 0 0 1-1.426-1.025c-.392-.46-.587-1.067-.587-1.82 0-.613.182-1.17.545-1.673.364-.516.88-.92 1.552-1.213.685-.293 1.468-.439 2.349-.439 1.314 0 2.37.335 3.166 1.004.81.655 1.244 1.555 1.3 2.698h-2.39c-.042-.516-.252-.927-.63-1.234-.377-.307-.887-.46-1.53-.46-.63 0-1.112.118-1.447.355-.336.237-.504.551-.504.941 0 .307.112.565.336.774.224.21.496.377.818.502.321.112.797.258 1.426.44.838.222 1.524.453 2.055.69a3.72 3.72 0 0 1 1.405 1.003c.391.447.594 1.04.608 1.778 0 .655-.182 1.24-.545 1.757-.364.516-.881.92-1.552 1.213-.657.293-1.433.439-2.328.439ZM100 16.206c0 .432-.028.822-.084 1.17h-8.828c.07.921.412 1.66 1.027 2.218.615.557 1.37.836 2.265.836 1.286 0 2.195-.537 2.726-1.61h2.58c-.35 1.06-.986 1.93-1.909 2.614-.909.67-2.04 1.004-3.397 1.004-1.104 0-2.097-.244-2.978-.732a5.477 5.477 0 0 1-2.055-2.091c-.49-.907-.734-1.952-.734-3.137 0-1.186.238-2.224.713-3.117a5.151 5.151 0 0 1 2.034-2.091c.881-.488 1.888-.732 3.02-.732 1.09 0 2.062.237 2.915.711a5.013 5.013 0 0 1 1.992 2.008c.475.85.713 1.833.713 2.949Zm-2.495-.753c-.014-.879-.329-1.583-.944-2.112-.615-.53-1.377-.795-2.286-.795-.825 0-1.53.265-2.118.795-.587.515-.936 1.22-1.048 2.112h6.396Z"/>
  <path fill="#38B8B1" d="M92.153 24.224v3.331h-.813v-1.37h-1.266v1.37h-.813v-3.33h.813v1.304h1.266v-1.305h.813Zm1.387 0v1.993c0 .2.05.353.147.46.099.108.243.162.433.162s.337-.054.438-.162c.101-.107.152-.26.152-.46v-1.992h.814v1.987c0 .298-.064.55-.19.755a1.22 1.22 0 0 1-.514.465c-.213.104-.45.157-.714.157-.263 0-.5-.051-.709-.152a1.174 1.174 0 0 1-.49-.465 1.495 1.495 0 0 1-.18-.76v-1.988h.813Zm4.577 1.623a.773.773 0 0 1 .466.29.8.8 0 0 1 .176.512.82.82 0 0 1-.295.664c-.193.162-.464.242-.813.242h-1.556v-3.33H97.6c.339 0 .604.077.794.232.193.155.29.365.29.631a.753.753 0 0 1-.566.76Zm-1.208-.275h.532c.134 0 .235-.028.305-.085.073-.06.11-.147.11-.261 0-.114-.037-.201-.11-.261-.07-.06-.171-.09-.304-.09h-.533v.697Zm.6 1.329c.135 0 .24-.03.313-.09a.332.332 0 0 0 .114-.271.34.34 0 0 0-.119-.275.47.47 0 0 0-.318-.1h-.59v.736h.6Zm-12.403-1.978c0-.291.237-.528.529-.528h2.134c.292 0 .529.236.529.528v2.128a.528.528 0 0 1-.529.527h-2.134a.528.528 0 0 1-.529-.527v-2.128Z"/>
</svg>
