<svg xmlns="http://www.w3.org/2000/svg" width="190" height="53" fill="none" viewBox="0 0 190 53">
  <g clip-path="url(#a)">
    <path fill="#38B8B1" d="M24.82 37.42c-.968-.488-1.473-1.245-1.445-2.313.028-1.037.586-1.724 1.503-2.155.13-.06.279-.115.37-.216.077-.085.145-.261.106-.345-.048-.103-.206-.182-.33-.211-.098-.023-.224.03-.326.073-1.25.535-1.962 1.474-2.08 2.83-.03.349-.178.551-.502.654-1.96.618-3.693-.516-4.023-2.243-.016-.08-.03-.162-.05-.242-.095-.375-.292-.475-.668-.377-.376.099-.757.218-1.141.247-1.09.08-2.228-.778-2.467-1.822-.095-.414-.008-.528.398-.636a37.69 37.69 0 0 0 2.018-.585c.31-.1.506.009.721.199.78.69 1.692.969 2.726.807.22-.034.446-.107.638-.216.097-.055.19-.25.163-.348-.027-.099-.197-.2-.318-.221-.145-.024-.305.03-.455.063-.742.17-1.417-.002-2.034-.417-.364-.244-.362-.43-.048-.739.154-.15.32-.3.428-.482.059-.098.058-.31-.01-.382-.07-.073-.266-.077-.386-.04-.13.04-.24.155-.35.247-1.395 1.161-2.99 1.628-4.79 1.363-1.841-.271-3.243-1.201-4.215-2.788-.234-.384-.223-.714.01-1.09.917-1.48 2.249-2.354 3.94-2.706.633-.133.76-.024 1.068.54.204.374.476.718.753 1.045.3.353.36.533.133.941-.385.691-.939 1.17-1.746 1.306-.071.012-.143.022-.213.04-.202.05-.396.129-.361.38.033.239.233.308.44.302.778-.025 1.414-.373 1.934-.922.238-.251.432-.552.608-.852.253-.43.302-.469.786-.378.56.106 1.111.082 1.65-.113.114-.041.247-.087.32-.174.076-.09.151-.261.112-.344-.047-.1-.206-.181-.33-.205-.11-.021-.24.042-.36.075-1.454.396-2.756-.28-3.202-1.71-.29-.931-.052-1.78.62-2.481.682-.713 1.541-.872 2.483-.666.253.055.362.247.418.485.079.33.162.66.262.984.041.134.103.29.207.371.112.089.316.173.42.126.094-.042.133-.26.15-.405.01-.09-.066-.191-.105-.286-.819-1.962.627-4.144 2.755-4.136.366.001.736.077 1.095.157.34.076.487.31.523.67.131 1.304.774 2.26 2.008 2.78.13.055.283.104.416.087.112-.015.269-.112.299-.206.029-.091-.052-.25-.133-.334-.088-.092-.229-.134-.35-.193-1.157-.563-1.694-1.585-1.46-2.78.209-1.058 1.268-1.918 2.447-1.98 1.06-.056 1.847.41 2.43 1.265.064.094.117.197.19.281.2.228.41.228.698-.033.67-.604 1.462-.844 2.345-.77 1.116.094 1.982.612 2.52 1.61.274.506.218.72-.202 1.106-.658.604-.95 1.357-.892 2.244.041.63-.036.754-.617 1.016a3.39 3.39 0 0 1-1.566.307 2.307 2.307 0 0 0-.675.048c-.11.029-.25.184-.257.29-.006.105.114.267.22.318.151.073.34.093.512.091.784-.007 1.54-.149 2.25-.496.512-.25.516-.252.933.16a2.72 2.72 0 0 0 1.433.748c.168.032.357.035.518-.012.103-.03.232-.17.24-.27.007-.1-.101-.238-.197-.307-.093-.066-.233-.071-.355-.093-1.093-.2-1.834-1.124-1.742-2.176.094-1.07.99-1.85 2.099-1.873 1.778-.037 3.102 1.484 3.304 2.79.268 1.737-.757 3.218-2.086 3.702-.356.129-.763.171-1.146.165-2.034-.036-4.068-.115-6.103-.148-1.292-.02-2.587-.033-3.875.037-1.619.089-3.232.265-4.847.406a.998.998 0 0 0-.21.048c-.208.066-.41.161-.36.422.05.257.269.287.49.263.358-.038.716-.092 1.076-.127.966-.09 1.932-.232 2.9-.25 2.748-.053 5.498-.1 8.247-.063 2.799.038 5.572.355 8.23 1.3.802.287 1.57.68 2.33 1.071.526.271.514.815-.016 1.098-.142.076-.419.04-.565-.052-1.255-.791-2.622-1.307-4.045-1.688-.553-.148-1.107-.323-1.758-.215.096.128.16.236.245.323.152.154.32.293.478.44 1.23 1.153 1.289 2.857.682 4.016-.657 1.254-2.025 2.032-3.567 1.712-.886-.183-1.478-1.01-1.473-1.965.005-.945.598-1.712 1.485-1.925.19-.046.394-.068.563-.157.105-.055.223-.22.212-.324-.01-.105-.157-.235-.273-.279-.125-.048-.286-.028-.426-.005a2.734 2.734 0 0 0-1.555.833c-.315.328-.403.339-.809.12-.68-.364-1.417-.503-2.175-.554-.192-.013-.407 0-.576.076-.132.06-.28.23-.296.366-.026.216.172.31.375.322.37.022.75-.011 1.111.059.43.084.852.235 1.264.39.292.11.415.355.375.672-.132 1.033.213 1.884.997 2.562.268.232.285.497.167.808-.392 1.044-1.516 1.782-2.737 1.792-.815.006-1.546-.211-2.175-.752-.373-.321-.633-.293-.854.126-.605 1.149-2.168 1.71-3.52 1.097Zm-1.267-7.505c.15-.04.298-.084.448-.12 1.882-.45 3.916.928 4.2 2.836.047.31-.002.581-.225.795-.37.356-.757.696-1.137 1.043-.165.15-.345.318-.174.55.175.236.405.138.608.011.113-.07.224-.148.324-.237.276-.247.552-.495.817-.755.21-.205.419-.23.667-.074.236.148.477.29.726.413.23.114.47.216.715.29.198.06.407.032.492-.198.081-.219-.063-.352-.236-.444-.182-.097-.373-.177-.562-.258-.74-.316-1.33-.754-1.371-1.647 0-.01-.004-.02-.007-.03-.51-1.594-1.578-2.635-3.21-2.988-1.5-.324-2.844.086-3.947 1.182-.279.277-.338.552-.15.694.273.206.443-.028.644-.167.437-.304.886-.588 1.378-.896Zm-1.64-6.821c2.503 2.107 6.178.948 6.953-2.226.162-.662.488-1.082 1.078-1.35.207-.095.41-.195.614-.295.102-.05.23-.083.294-.164.08-.101.178-.279.138-.36-.052-.106-.227-.2-.357-.21-.142-.011-.303.06-.44.127-.378.187-.755.38-1.12.594-.254.15-.45.122-.665-.078a18.13 18.13 0 0 0-1.055-.903c-.308-.245-.54-.267-.648-.077-.169.296.072.449.251.615.332.309.67.61.996.924.249.24.338.54.252.877-.066.258-.122.524-.231.765a3.554 3.554 0 0 1-5.637 1.184c-.123-.11-.23-.253-.374-.319-.12-.055-.352-.078-.409-.01-.08.095-.102.312-.048.432.077.17.246.298.408.474Z"/>
  </g>
  <path fill="#38B8B1" fill-rule="evenodd" d="M0 0h190v53H0V0Zm6.407 6.41h39.676v39.688H6.407V6.409ZM147.27 16.44c.376.376.842.564 1.397.564.537 0 .994-.188 1.37-.564.376-.376.564-.842.564-1.397s-.188-1.021-.564-1.397a1.865 1.865 0 0 0-1.37-.565c-.555 0-1.021.188-1.397.565-.376.376-.564.842-.564 1.397s.188 1.02.564 1.397Zm2.901 17.331V18.967h-3.062v14.805h3.062ZM75.279 13.89v19.883h-3.062V13.89h3.062Zm-18.205 7.254c.52-.68 1.227-1.254 2.122-1.72.896-.465 1.907-.698 3.036-.698 1.289 0 2.462.322 3.518.967 1.075.627 1.916 1.514 2.525 2.66.61 1.147.914 2.463.914 3.95s-.305 2.822-.914 4.004c-.609 1.164-1.45 2.078-2.525 2.74-1.056.645-2.23.968-3.518.968-1.129 0-2.131-.224-3.009-.672-.877-.466-1.594-1.039-2.149-1.72v9.19h-3.062V18.967h3.062v2.176Zm8.999 5.16c0-1.022-.215-1.9-.645-2.634-.412-.752-.967-1.317-1.665-1.693a4.32 4.32 0 0 0-2.203-.59 4.42 4.42 0 0 0-2.203.59c-.68.394-1.235.968-1.665 1.72-.412.752-.618 1.639-.618 2.66 0 1.021.206 1.917.618 2.687.43.752.985 1.326 1.665 1.72a4.417 4.417 0 0 0 2.203.59 4.32 4.32 0 0 0 2.203-.59c.698-.412 1.253-1.004 1.665-1.774.43-.77.645-1.666.645-2.687Zm13.119-3.95c-.609 1.146-.913 2.462-.913 3.95 0 1.486.304 2.82.913 4.003.627 1.164 1.468 2.078 2.525 2.74a6.574 6.574 0 0 0 3.492.968c1.146 0 2.167-.233 3.062-.699.895-.465 1.603-1.048 2.122-1.746v2.203h3.09V18.967h-3.09v2.15c-.52-.681-1.218-1.245-2.095-1.693-.86-.466-1.871-.699-3.035-.699-1.29 0-2.472.322-3.546.967-1.057.627-1.898 1.514-2.525 2.66Zm10.556 1.343c.43.752.645 1.639.645 2.66 0 1.021-.215 1.917-.645 2.687-.412.752-.958 1.326-1.638 1.72a4.32 4.32 0 0 1-2.203.59c-.77 0-1.504-.196-2.202-.59-.68-.412-1.236-1.004-1.666-1.774-.412-.77-.618-1.666-.618-2.687 0-1.02.206-1.898.618-2.633.43-.752.985-1.317 1.666-1.693a4.32 4.32 0 0 1 2.202-.59 4.32 4.32 0 0 1 2.203.59c.68.394 1.227.968 1.638 1.72Zm15.224-4.971c1.164 0 2.202.242 3.115.726a5.134 5.134 0 0 1 2.176 2.15c.52.948.779 2.095.779 3.438v8.733h-3.035v-8.276c0-1.325-.331-2.337-.994-3.036-.663-.717-1.567-1.075-2.713-1.075-1.146 0-2.059.358-2.74 1.075-.662.698-.994 1.71-.994 3.036v8.276h-3.062V18.967h3.062v1.693a5.095 5.095 0 0 1 1.907-1.424 6.235 6.235 0 0 1 2.499-.511Zm13.549 10.936v-8.195h3.599v-2.5h-3.599v-3.68h-3.089v3.68h-1.746v2.5h1.746v8.195c0 1.451.367 2.499 1.101 3.144s1.791.967 3.17.967h2.417V31.22h-1.88c-.627 0-1.075-.117-1.343-.35-.251-.25-.376-.654-.376-1.209Zm26.299-10.694-4.594 14.805h-3.223l-2.981-10.936-2.982 10.936h-3.223l-4.621-14.805h3.116l3.089 11.903 3.143-11.903h3.197l3.008 11.85 3.062-11.85h3.009Zm14.743 15.047c-1.164 0-2.212-.206-3.143-.618-.913-.43-1.638-1.003-2.176-1.72a4.354 4.354 0 0 1-.859-2.445h3.17c.053.627.349 1.155.886 1.585.555.412 1.245.618 2.068.618.86 0 1.522-.16 1.988-.483.483-.34.725-.77.725-1.29 0-.555-.268-.967-.806-1.236-.519-.269-1.352-.564-2.498-.887-1.11-.304-2.014-.6-2.713-.886a4.869 4.869 0 0 1-1.826-1.317c-.502-.591-.752-1.37-.752-2.338 0-.788.232-1.504.698-2.15.466-.662 1.128-1.181 1.988-1.558.877-.376 1.88-.564 3.008-.564 1.684 0 3.036.43 4.056 1.29 1.039.842 1.594 1.997 1.666 3.466h-3.063c-.053-.663-.322-1.191-.805-1.585-.484-.394-1.137-.591-1.961-.591-.806 0-1.424.152-1.854.456-.429.305-.644.708-.644 1.21 0 .393.143.725.429.994a3.24 3.24 0 0 0 1.048.645 38.76 38.76 0 0 0 1.827.564c1.074.286 1.952.582 2.632.887a4.774 4.774 0 0 1 1.8 1.29c.501.572.761 1.334.779 2.283 0 .842-.233 1.594-.699 2.257-.465.663-1.128 1.183-1.987 1.559-.842.376-1.836.564-2.982.564Zm22.434-6.503c.072-.447.107-.949.107-1.504 0-1.433-.304-2.696-.913-3.789a6.43 6.43 0 0 0-2.552-2.58c-1.092-.608-2.337-.913-3.733-.913-1.451 0-2.74.313-3.868.94-1.111.627-1.979 1.523-2.606 2.687-.609 1.147-.913 2.481-.913 4.004 0 1.523.313 2.866.94 4.03a7.03 7.03 0 0 0 2.632 2.688c1.128.626 2.4.94 3.815.94 1.737 0 3.187-.43 4.351-1.29 1.182-.878 1.997-1.997 2.444-3.358h-3.303c-.681 1.379-1.845 2.068-3.492 2.068-1.147 0-2.114-.358-2.901-1.074-.788-.717-1.227-1.666-1.317-2.849h11.309Zm-4.298-5.185c.788.68 1.191 1.585 1.209 2.713h-8.193c.143-1.146.591-2.05 1.343-2.713.752-.681 1.657-1.021 2.713-1.021 1.164 0 2.14.34 2.928 1.02Z" clip-rule="evenodd"/>
  <defs>
    <clipPath id="a">
      <path fill="currentColor" d="M0 0h36.226v22.433H0z" transform="translate(7.886 15.284)"/>
    </clipPath>
  </defs>
</svg>
