<svg xmlns="http://www.w3.org/2000/svg" width="154" height="46" fill="none" viewBox="0 0 154 46">
  <path fill="#38B8B1" fill-opacity=".42" d="M89.567 43.058c-2.111.23-3.758-.476-4.87-2.26-1.081-1.733-.913-3.455.12-5.14.146-.238.33-.485.37-.748.033-.221-.047-.584-.203-.68-.19-.117-.532-.08-.768.005-.185.066-.333.286-.453.467-1.463 2.21-1.608 4.51-.332 6.861.33.607.309 1.096-.11 1.609-2.534 3.104-6.597 3.085-9.01.6-.113-.116-.225-.233-.345-.343-.561-.517-.991-.471-1.499.09-.509.564-1.001 1.163-1.6 1.62-1.694 1.294-4.484 1.094-6.008-.365-.605-.58-.586-.859-.038-1.47a72.584 72.584 0 0 0 2.663-3.108c.396-.495.837-.525 1.395-.442 2.023.303 3.817-.21 5.332-1.575a3.68 3.68 0 0 0 .808-1.036c.099-.193.04-.61-.11-.745-.15-.133-.54-.119-.76-.023-.262.114-.467.373-.675.589-1.03 1.067-2.32 1.503-3.777 1.479-.86-.014-1.06-.322-.882-1.162.088-.412.198-.835.178-1.249-.01-.222-.242-.57-.431-.615-.193-.047-.52.156-.674.343-.17.204-.224.51-.305.78-1.02 3.392-3.123 5.856-6.354 7.338-3.302 1.514-6.603 1.479-9.912-.093-.8-.38-1.14-.935-1.167-1.8-.107-3.407 1.123-6.262 3.504-8.64.894-.892 1.217-.85 2.333-.25.74.397 1.557.673 2.365.914.875.261 1.167.494 1.238 1.406.121 1.544-.265 2.92-1.437 4.002-.104.096-.21.189-.306.292-.276.297-.507.634-.178 1.01.313.357.716.258 1.049.026 1.244-.868 1.906-2.117 2.16-3.572.117-.666.108-1.366.07-2.046-.053-.976-.015-1.093.875-1.458 1.029-.422 1.907-1.048 2.575-1.941.142-.19.31-.408.334-.629.026-.227-.036-.59-.189-.683-.187-.116-.535-.078-.763.014-.204.083-.346.325-.506.505-1.949 2.2-4.81 2.476-7.09.602-1.486-1.221-2.017-2.87-1.68-4.735.344-1.898 1.576-3.073 3.34-3.738.473-.179.858.02 1.209.352.486.459.98.911 1.494 1.337.214.177.484.366.742.39.279.026.703-.053.822-.24.109-.17-.063-.568-.194-.825-.081-.16-.313-.245-.481-.359-3.467-2.35-3.47-7.474.018-9.727.599-.387 1.286-.656 1.96-.907.637-.237 1.133-.009 1.583.544 1.628 2.002 3.716 2.888 6.296 2.429.272-.049.576-.131.775-.302.167-.142.318-.469.265-.655-.052-.18-.357-.356-.58-.408-.242-.057-.519.024-.78.056-2.502.308-4.49-.8-5.401-3.011-.808-1.96-.01-4.502 1.85-5.858 1.671-1.22 3.465-1.292 5.346-.509.205.086.403.198.616.259.572.162.915-.061 1.105-.797.44-1.706 1.472-2.943 2.997-3.76 1.928-1.035 3.904-1.105 5.867-.04.996.54 1.138.952.87 2.032-.421 1.693-.081 3.24.975 4.635.75.99.759 1.279.094 2.325a6.538 6.538 0 0 1-2.227 2.172c-.38.223-.76.478-1.052.798-.148.164-.21.57-.106.749.104.18.476.318.706.29.325-.04.656-.21.935-.395 1.274-.847 2.357-1.886 3.14-3.213.565-.955.57-.96 1.698-.73a5.335 5.335 0 0 0 3.155-.296c.309-.126.621-.323.834-.57.135-.16.195-.528.099-.699-.096-.172-.424-.284-.654-.295-.225-.01-.46.131-.682.224-2.003.837-4.218.108-5.209-1.719-1.006-1.856-.389-4.09 1.4-5.31 2.866-1.954 6.681-.866 8.43 1.066 2.32 2.566 2.252 6.09.604 8.3-.442.59-1.062 1.094-1.695 1.49-3.364 2.108-6.776 4.143-10.137 6.256-2.134 1.341-4.265 2.699-6.296 4.186-2.549 1.868-4.995 3.875-7.483 5.825-.11.086-.203.196-.291.305-.269.33-.497.7-.13 1.075.36.367.75.185 1.084-.088.546-.446 1.072-.916 1.623-1.355 1.48-1.178 2.906-2.44 4.469-3.5 4.436-3.013 8.88-6.017 13.414-8.882 4.617-2.918 9.495-5.348 14.865-6.623 1.623-.386 3.305-.558 4.972-.724 1.154-.115 1.723.792 1.164 1.821-.15.276-.641.512-.98.516-2.909.036-5.704.644-8.445 1.533-1.063.345-2.159.649-3.107 1.518.295.109.517.22.752.27.416.091.84.14 1.259.216 3.26.583 5.206 3.32 5.471 5.868.287 2.76-1.107 5.494-3.974 6.61-1.648.642-3.513-.087-4.54-1.66-1.017-1.557-.88-3.448.339-4.742.261-.278.571-.533.751-.857.112-.203.125-.6-.005-.758-.132-.16-.512-.218-.75-.168-.255.054-.497.258-.7.445-.888.819-1.424 1.832-1.64 3.024-.159.875-.291.985-1.19 1.059-1.508.124-2.865.682-4.159 1.405-.327.183-.665.432-.859.739-.15.239-.209.675-.088.915.192.383.618.326.963.13.63-.359 1.215-.818 1.88-1.087.796-.32 1.648-.52 2.49-.703.598-.131 1.064.14 1.342.704.905 1.836 2.392 2.867 4.409 3.146.689.095 1.004.513 1.151 1.15.489 2.132-.546 4.54-2.533 5.857-1.325.878-2.756 1.3-4.37 1.08-.958-.13-1.353.193-1.26 1.116.257 2.531-1.69 5.117-4.563 5.55ZM79.355 32.081c.2-.225.396-.455.603-.675 2.587-2.743 7.408-2.644 9.944.187.412.46.625.957.493 1.547-.22.979-.484 1.948-.728 2.922-.106.423-.22.891.312 1.088.543.201.81-.204 1.006-.627a4.52 4.52 0 0 0 .272-.735c.185-.7.367-1.402.518-2.11.12-.56.435-.824 1.01-.833.546-.008 1.094-.03 1.635-.093a9.15 9.15 0 0 0 1.483-.285c.39-.112.699-.38.59-.849-.105-.446-.487-.511-.868-.479-.402.035-.802.106-1.2.175-1.552.27-2.992.177-4.027-1.246a.214.214 0 0 0-.044-.041c-2.562-2.076-5.437-2.649-8.488-1.49-2.805 1.065-4.557 3.168-5.171 6.142-.155.752.046 1.267.508 1.3.67.048.694-.517.87-.96.386-.964.812-1.91 1.282-2.938Zm-10.08-9.459c6.379.797 11.127-5.02 8.952-11.058-.454-1.26-.376-2.297.297-3.367.236-.375.46-.756.685-1.137.112-.19.284-.38.301-.582.022-.25-.01-.647-.163-.738-.201-.12-.589-.086-.811.034-.246.134-.432.42-.582.677-.415.711-.821 1.43-1.186 2.168-.255.517-.603.68-1.172.58-.896-.156-1.8-.272-2.706-.36-.769-.074-1.17.136-1.141.564.044.665.604.66 1.077.744.876.153 1.756.289 2.63.457.667.129 1.139.526 1.364 1.171.172.494.368.991.451 1.503.765 4.71-3.197 8.67-7.93 7.946-.32-.05-.652-.17-.958-.125-.256.037-.66.245-.68.417-.028.243.172.622.391.762.31.197.725.228 1.18.344Z"/>
  <path fill="#fff" d="M3.682 19.044c.624-.812 1.474-1.496 2.55-2.052 1.077-.556 2.294-.834 3.65-.834 1.55 0 2.96.385 4.23 1.155 1.292.748 2.304 1.806 3.036 3.174.732 1.369 1.098 2.94 1.098 4.714 0 1.775-.366 3.367-1.098 4.779-.732 1.39-1.744 2.48-3.035 3.27-1.27.77-2.68 1.155-4.231 1.155-1.356 0-2.562-.267-3.617-.802-1.055-.556-1.916-1.24-2.583-2.052v10.967H0V16.447h3.682v2.597ZM14.5 25.201c0-1.218-.258-2.266-.775-3.142-.495-.898-1.163-1.572-2.002-2.02a5.225 5.225 0 0 0-2.648-.706c-.926 0-1.809.235-2.648.706-.819.47-1.486 1.154-2.003 2.052-.495.898-.742 1.956-.742 3.174 0 1.22.247 2.288.742 3.207.517.898 1.184 1.582 2.003 2.053.84.47 1.722.705 2.648.705.947 0 1.83-.235 2.648-.705.84-.492 1.507-1.197 2.002-2.117.517-.92.775-1.988.775-3.207Zm11.068-14.815v23.73h-3.681v-23.73h3.681Zm3.607 14.815c0-1.774.366-3.345 1.098-4.714.753-1.368 1.765-2.426 3.035-3.174 1.292-.77 2.713-1.155 4.263-1.155 1.4 0 2.616.278 3.65.834 1.054.534 1.894 1.208 2.518 2.02v-2.565h3.714v17.67H43.74v-2.63c-.624.834-1.474 1.528-2.55 2.084-1.077.556-2.304.834-3.682.834-1.529 0-2.928-.385-4.199-1.154-1.27-.792-2.282-1.882-3.035-3.271-.732-1.412-1.098-3.004-1.098-4.779Zm14.564.064c0-1.218-.258-2.276-.775-3.174-.495-.898-1.151-1.582-1.97-2.053a5.224 5.224 0 0 0-2.648-.705c-.947 0-1.83.235-2.648.706-.818.448-1.485 1.122-2.002 2.02-.495.876-.743 1.924-.743 3.142 0 1.219.248 2.288.743 3.207.517.92 1.184 1.625 2.002 2.117.84.47 1.722.705 2.648.705.948 0 1.83-.235 2.648-.705.819-.47 1.475-1.155 1.97-2.053.517-.919.775-1.988.775-3.207Zm17.528-9.107c1.399 0 2.648.289 3.746.866 1.12.577 1.991 1.432 2.615 2.566.625 1.133.937 2.5.937 4.104v10.422h-3.65V24.24c0-1.582-.398-2.79-1.194-3.623-.797-.855-1.884-1.283-3.262-1.283-1.378 0-2.476.428-3.294 1.283-.797.834-1.195 2.041-1.195 3.623v9.877h-3.68v-17.67h3.681v2.021c.603-.727 1.367-1.293 2.293-1.7a7.54 7.54 0 0 1 3.004-.609Zm16.289 3.272v9.78c0 .663.15 1.144.452 1.443.323.278.861.417 1.615.417h2.26v3.046h-2.906c-1.658 0-2.928-.385-3.81-1.154-.883-.77-1.325-2.02-1.325-3.752v-9.78h-2.099v-2.983h2.1v-4.393h3.713v4.393h4.328v2.982h-4.328Zm31.618-2.983-5.522 17.67h-3.875l-3.585-13.052-3.585 13.051h-3.875l-5.555-17.67h3.747l3.713 14.207 3.779-14.206h3.843l3.617 14.142 3.681-14.142h3.617Zm4.625-2.341c-.668 0-1.228-.224-1.68-.674-.452-.448-.678-1.004-.678-1.667s.226-1.219.678-1.668c.452-.448 1.012-.673 1.68-.673a2.25 2.25 0 0 1 1.647.673c.452.45.678 1.005.678 1.668s-.226 1.219-.678 1.667a2.25 2.25 0 0 1-1.647.674Zm1.808 2.34v17.67h-3.681v-17.67h3.681Zm11.292 17.959c-1.399 0-2.658-.246-3.778-.738-1.098-.513-1.97-1.197-2.616-2.052a5.168 5.168 0 0 1-1.033-2.918h3.811c.064.748.419 1.379 1.065 1.892.668.492 1.497.737 2.487.737 1.033 0 1.83-.192 2.39-.577.581-.406.872-.92.872-1.54 0-.662-.323-1.154-.969-1.474-.625-.32-1.626-.674-3.004-1.058-1.334-.364-2.422-.717-3.261-1.059a5.848 5.848 0 0 1-2.196-1.571c-.603-.706-.905-1.636-.905-2.79 0-.94.28-1.796.84-2.565.56-.791 1.356-1.411 2.39-1.86 1.055-.45 2.26-.674 3.617-.674 2.024 0 3.649.513 4.876 1.54 1.249 1.004 1.916 2.383 2.002 4.136h-3.681c-.065-.79-.388-1.421-.969-1.892-.581-.47-1.367-.705-2.357-.705-.969 0-1.712.182-2.229.545-.516.363-.775.844-.775 1.443 0 .47.172.866.517 1.186.344.321.764.578 1.259.77.496.171 1.228.396 2.196.674 1.292.342 2.347.694 3.165 1.058.84.342 1.561.855 2.164 1.54.603.683.915 1.592.937 2.725 0 1.005-.28 1.902-.84 2.694-.56.79-1.356 1.41-2.39 1.86-1.012.448-2.207.673-3.585.673ZM154 24.849c0 .662-.043 1.261-.129 1.796h-13.596c.108 1.41.635 2.544 1.582 3.399.948.855 2.11 1.282 3.488 1.282 1.981 0 3.38-.823 4.198-2.469h3.973c-.539 1.625-1.518 2.961-2.939 4.009-1.4 1.026-3.143 1.539-5.232 1.539-1.701 0-3.229-.374-4.586-1.123a8.419 8.419 0 0 1-3.164-3.206c-.754-1.39-1.131-2.993-1.131-4.81 0-1.818.366-3.41 1.098-4.779.754-1.39 1.798-2.458 3.133-3.206 1.356-.749 2.906-1.123 4.65-1.123 1.679 0 3.176.364 4.489 1.09a7.705 7.705 0 0 1 3.068 3.08c.732 1.303 1.098 2.81 1.098 4.52Zm-3.843-1.155c-.022-1.347-.506-2.426-1.453-3.239-.948-.812-2.121-1.218-3.52-1.218-1.271 0-2.358.406-3.262 1.218-.904.791-1.442 1.871-1.615 3.24h9.85Z"/>
  <path fill="#38B8B1" d="M141.916 37.144v5.107h-1.253V40.15h-1.948v2.102h-1.253v-5.107h1.253v2h1.948v-2h1.253Zm2.136 0V40.2c0 .305.075.54.227.706.151.164.373.247.666.247.293 0 .518-.083.674-.247.157-.165.235-.4.235-.706v-3.056h1.253v3.049c0 .456-.098.841-.293 1.156-.196.316-.46.553-.792.713-.327.16-.693.24-1.099.24-.405 0-.769-.077-1.091-.232a1.805 1.805 0 0 1-.755-.713c-.186-.32-.278-.709-.278-1.164v-3.049h1.253Zm7.048 2.488c.298.063.537.211.718.444.181.228.271.49.271.786 0 .427-.151.766-.454 1.018-.298.248-.716.371-1.253.371h-2.396v-5.107h2.316c.522 0 .93.12 1.223.357.298.237.447.56.447.967 0 .301-.081.55-.242.75a1.21 1.21 0 0 1-.63.414Zm-1.861-.422h.821c.205 0 .361-.043.469-.13.112-.093.168-.226.168-.4 0-.175-.056-.309-.168-.4-.108-.093-.264-.14-.469-.14h-.821v1.07Zm.923 2.038c.21 0 .372-.047.484-.139a.509.509 0 0 0 .176-.415.52.52 0 0 0-.183-.421c-.118-.102-.281-.153-.491-.153h-.909v1.128h.923Zm-19.098-3.033a.81.81 0 0 1 .814-.809h3.287c.449 0 .814.362.814.809v3.263a.812.812 0 0 1-.814.809h-3.287a.81.81 0 0 1-.814-.809v-3.263Z"/>
</svg>
