<svg xmlns="http://www.w3.org/2000/svg" width="188" height="93" fill="none" viewBox="0 0 188 93">
  <g clip-path="url(#a)">
    <path fill="#38B8B1" fill-opacity=".42" d="M109.341 69.948c-2.577.282-4.587-.585-5.944-2.778-1.32-2.131-1.115-4.247.145-6.319.179-.293.403-.597.452-.92.041-.272-.057-.718-.247-.836-.231-.144-.65-.098-.937.006-.226.08-.407.352-.553.575-1.787 2.717-1.964 5.544-.406 8.435.402.745.377 1.347-.134 1.977-3.094 3.816-8.054 3.793-11 .739-.137-.144-.274-.288-.42-.423-.686-.635-1.211-.58-1.83.111-.622.693-1.223 1.43-1.953 1.992-2.069 1.59-5.475 1.345-7.335-.45-.738-.712-.716-1.055-.047-1.806 1.112-1.249 2.212-2.512 3.251-3.821.484-.61 1.022-.646 1.703-.544 2.47.372 4.66-.258 6.51-1.936.394-.358.747-.8.986-1.273.12-.237.048-.751-.135-.916-.184-.164-.66-.147-.928-.029-.32.14-.57.458-.824.724-1.257 1.312-2.831 1.848-4.61 1.818-1.05-.017-1.294-.396-1.076-1.428.107-.507.24-1.027.216-1.535-.013-.274-.295-.7-.526-.757-.236-.057-.633.192-.823.422-.207.25-.274.627-.372.958-1.245 4.17-3.812 7.2-7.756 9.022-4.032 1.862-8.062 1.818-12.101-.115-.977-.467-1.392-1.149-1.425-2.212-.13-4.19 1.371-7.698 4.278-10.622 1.09-1.097 1.486-1.044 2.848-.308.903.489 1.9.828 2.888 1.125 1.067.32 1.423.606 1.51 1.728.148 1.898-.323 3.59-1.754 4.92-.126.118-.257.232-.374.359-.336.365-.618.78-.216 1.241.381.44.873.318 1.28.032 1.519-1.067 2.327-2.602 2.638-4.39.142-.82.13-1.68.085-2.516-.066-1.2-.02-1.343 1.067-1.792 1.257-.52 2.328-1.29 3.144-2.387.174-.234.377-.501.408-.773.031-.28-.045-.725-.231-.84-.228-.142-.653-.096-.931.017-.25.102-.423.4-.618.621-2.379 2.704-5.871 3.045-8.655.74-1.814-1.501-2.462-3.529-2.05-5.821.418-2.333 1.923-3.778 4.075-4.596.578-.22 1.048.026 1.477.433a37.41 37.41 0 0 0 1.823 1.644c.262.218.591.45.906.48.34.031.86-.065 1.004-.295.133-.21-.077-.7-.237-1.015-.099-.196-.382-.3-.587-.44-4.232-2.89-4.236-9.19.022-11.959.731-.476 1.57-.807 2.392-1.115.778-.292 1.383-.011 1.933.669 1.987 2.46 4.537 3.55 7.686 2.985.332-.06.703-.16.947-.37.203-.176.388-.577.323-.806-.064-.222-.436-.438-.708-.502-.296-.07-.634.03-.951.07-3.056.378-5.482-.983-6.596-3.703-.986-2.41-.01-5.534 2.26-7.201 2.04-1.5 4.23-1.589 6.525-.626.252.105.493.244.752.318.699.2 1.118-.075 1.35-.98.537-2.096 1.797-3.617 3.659-4.623 2.353-1.271 4.766-1.357 7.162-.048 1.216.664 1.388 1.17 1.061 2.498-.514 2.08-.098 3.982 1.191 5.699.915 1.218.927 1.571.115 2.858-.699 1.106-1.59 2-2.719 2.67-.463.274-.928.587-1.283.981-.181.201-.257.7-.13.92.126.222.581.391.862.356.396-.049.8-.256 1.141-.485 1.555-1.04 2.877-2.318 3.834-3.95.689-1.174.696-1.18 2.072-.896a6.47 6.47 0 0 0 3.852-.364c.377-.156.758-.397 1.017-.702.166-.195.238-.649.121-.858-.117-.212-.516-.35-.799-.363-.273-.013-.56.16-.832.275-2.444 1.03-5.149.132-6.358-2.113-1.229-2.282-.475-5.03 1.708-6.529 3.499-2.402 8.157-1.064 10.291 1.311 2.834 3.155 2.75 7.488.738 10.203-.539.727-1.297 1.346-2.069 1.834-4.107 2.591-8.272 5.092-12.375 7.69-2.605 1.649-5.207 3.318-7.686 5.146-3.112 2.296-6.098 4.764-9.135 7.161a2.344 2.344 0 0 0-.356.375c-.328.405-.606.862-.158 1.322.44.451.915.228 1.324-.109.665-.548 1.307-1.126 1.98-1.665 1.808-1.449 3.548-2.999 5.456-4.303 5.415-3.704 10.841-7.398 16.375-10.92 5.637-3.586 11.592-6.574 18.147-8.142 1.981-.474 4.036-.685 6.07-.89 1.409-.141 2.104.974 1.421 2.239-.183.34-.782.629-1.196.634-3.552.044-6.964.791-10.31 1.885-1.298.424-2.635.797-3.792 1.866.36.134.631.27.918.333.507.111 1.025.172 1.537.264 3.979.717 6.355 4.081 6.678 7.214.351 3.394-1.351 6.755-4.851 8.127-2.012.79-4.289-.106-5.543-2.04-1.241-1.915-1.074-4.24.414-5.831.319-.342.698-.654.918-1.054.136-.248.151-.737-.007-.931-.161-.198-.625-.268-.915-.207-.312.067-.608.318-.855.548-1.084 1.006-1.739 2.252-2.003 3.717-.193 1.075-.354 1.211-1.453 1.302-1.84.152-3.496.838-5.076 1.727-.4.225-.812.531-1.048.908-.184.294-.255.83-.108 1.126.235.47.754.4 1.175.16.769-.441 1.484-1.007 2.296-1.336.971-.394 2.011-.64 3.04-.866.729-.16 1.298.172 1.638.866 1.105 2.258 2.92 3.525 5.382 3.868.842.117 1.226.63 1.405 1.414.598 2.621-.667 5.582-3.092 7.2-1.618 1.08-3.364 1.598-5.335 1.328-1.17-.16-1.651.238-1.537 1.372.313 3.112-2.063 6.291-5.571 6.822ZM96.875 56.453c.245-.277.483-.56.736-.83 3.158-3.372 9.044-3.25 12.139.23.503.566.764 1.176.602 1.902-.268 1.204-.59 2.395-.888 3.592-.13.52-.268 1.096.38 1.338.663.247.99-.25 1.229-.771.133-.291.251-.594.332-.904a59.2 59.2 0 0 0 .633-2.594c.146-.687.53-1.013 1.232-1.023.666-.01 1.335-.037 1.996-.115a11.11 11.11 0 0 0 1.811-.35c.475-.139.853-.468.719-1.044-.128-.549-.593-.629-1.059-.589-.491.043-.979.13-1.464.215-1.896.331-3.653.218-4.917-1.531a.26.26 0 0 0-.054-.052c-3.127-2.551-6.637-3.256-10.362-1.831-3.424 1.31-5.563 3.895-6.312 7.55-.19.925.056 1.558.62 1.599.818.06.846-.636 1.063-1.18.47-1.185.99-2.348 1.564-3.612ZM84.569 44.824c7.787.98 13.584-6.17 10.93-13.594-.555-1.55-.46-2.825.362-4.14.288-.46.562-.929.836-1.397.137-.234.347-.468.368-.716.026-.308-.013-.796-.2-.907-.245-.147-.718-.107-.99.042-.3.164-.527.516-.71.831a43.758 43.758 0 0 0-1.448 2.666c-.311.635-.736.835-1.431.713a43.65 43.65 0 0 0-3.303-.442c-.939-.092-1.429.167-1.394.694.054.817.738.811 1.316.913 1.07.189 2.143.356 3.21.563.815.158 1.39.646 1.665 1.44.21.607.45 1.218.551 1.847.933 5.791-3.903 10.66-9.682 9.768-.39-.06-.795-.208-1.168-.154-.313.046-.805.302-.83.514-.035.298.21.765.477.936.378.242.885.281 1.44.423Z"/>
  </g>
  <path fill="#fff" d="M4.494 40.426c.763-.999 1.8-1.84 3.115-2.523 1.314-.684 2.799-1.025 4.455-1.025 1.892 0 3.614.473 5.164 1.42 1.577.919 2.813 2.22 3.706 3.902.894 1.682 1.34 3.614 1.34 5.795 0 2.182-.446 4.14-1.34 5.875-.893 1.708-2.129 3.048-3.706 4.02-1.55.947-3.272 1.42-5.164 1.42-1.656 0-3.128-.329-4.416-.986-1.288-.683-2.339-1.524-3.154-2.523v13.483H0V37.233h4.494v3.193Zm13.207 7.57c0-1.499-.315-2.787-.946-3.864-.604-1.104-1.42-1.932-2.444-2.484a6.343 6.343 0 0 0-3.233-.867c-1.13 0-2.208.289-3.233.867-.998.578-1.813 1.42-2.444 2.523-.604 1.104-.907 2.405-.907 3.903 0 1.498.303 2.812.907 3.943.63 1.103 1.446 1.944 2.444 2.523a6.485 6.485 0 0 0 3.233.867c1.157 0 2.234-.29 3.233-.867 1.025-.605 1.84-1.472 2.444-2.602.631-1.13.946-2.445.946-3.943Zm13.512-18.214v29.173H26.72V29.782h4.494Zm4.403 18.213c0-2.181.447-4.113 1.34-5.795.92-1.682 2.155-2.983 3.706-3.903 1.577-.946 3.312-1.42 5.204-1.42 1.709 0 3.193.342 4.455 1.026 1.288.657 2.313 1.485 3.075 2.483v-3.153h4.534v21.722h-4.534v-3.233c-.762 1.026-1.8 1.88-3.114 2.563-1.314.683-2.813 1.025-4.495 1.025-1.866 0-3.574-.473-5.125-1.42-1.55-.972-2.786-2.312-3.706-4.02-.893-1.735-1.34-3.693-1.34-5.875Zm17.78.08c0-1.499-.315-2.8-.946-3.904-.605-1.104-1.406-1.945-2.405-2.523a6.343 6.343 0 0 0-3.233-.867 6.342 6.342 0 0 0-3.232.867c-1 .552-1.814 1.38-2.445 2.484-.604 1.077-.907 2.365-.907 3.863 0 1.498.303 2.813.907 3.943.631 1.13 1.446 1.997 2.445 2.602a6.485 6.485 0 0 0 3.232.867c1.157 0 2.234-.29 3.233-.867.999-.578 1.8-1.42 2.405-2.523.63-1.13.946-2.445.946-3.943Zm21.397-11.197c1.708 0 3.233.355 4.573 1.064 1.367.71 2.431 1.761 3.193 3.154.763 1.393 1.144 3.075 1.144 5.046v12.813h-4.455V46.813c0-1.945-.487-3.43-1.459-4.455-.972-1.052-2.3-1.577-3.982-1.577-1.682 0-3.022.525-4.021 1.577-.972 1.025-1.459 2.51-1.459 4.455v12.142h-4.494V37.233h4.494v2.483c.736-.893 1.67-1.59 2.8-2.09a9.151 9.151 0 0 1 3.666-.748Zm19.886 4.021v12.024c0 .815.184 1.407.552 1.774.394.342 1.051.513 1.971.513h2.76v3.745h-3.549c-2.023 0-3.574-.473-4.651-1.419-1.078-.946-1.617-2.484-1.617-4.613V40.9h-2.563v-3.666h2.563v-5.401h4.534v5.4h5.283V40.9h-5.283Zm38.599-3.666-6.742 21.722h-4.731l-4.376-16.045-4.376 16.045h-4.731l-6.781-21.722h4.574l4.533 17.464 4.613-17.464h4.691l4.416 17.386 4.494-17.386h4.416Zm5.645-2.878c-.815 0-1.498-.276-2.05-.828-.552-.552-.828-1.236-.828-2.05 0-.815.276-1.498.828-2.05.552-.552 1.235-.828 2.05-.828.788 0 1.459.276 2.011.828.552.552.828 1.235.828 2.05 0 .814-.276 1.498-.828 2.05a2.74 2.74 0 0 1-2.011.828Zm2.208 2.878v21.722h-4.495V37.233h4.495Zm13.785 22.077c-1.708 0-3.246-.302-4.612-.907-1.341-.63-2.405-1.472-3.194-2.523a6.382 6.382 0 0 1-1.261-3.587h4.652c.079.92.512 1.695 1.301 2.326.814.604 1.826.906 3.035.906 1.262 0 2.234-.236 2.918-.71.709-.499 1.064-1.13 1.064-1.892 0-.814-.394-1.419-1.183-1.813-.762-.394-1.984-.828-3.666-1.301-1.629-.447-2.957-.88-3.982-1.301a7.156 7.156 0 0 1-2.681-1.932c-.736-.867-1.103-2.01-1.103-3.43 0-1.156.341-2.208 1.025-3.154.683-.972 1.655-1.734 2.917-2.286 1.288-.552 2.76-.828 4.415-.828 2.471 0 4.455.63 5.953 1.892 1.525 1.235 2.34 2.93 2.445 5.086h-4.495c-.078-.973-.473-1.748-1.182-2.326-.71-.578-1.669-.867-2.878-.867-1.183 0-2.09.223-2.721.67-.63.447-.946 1.038-.946 1.774 0 .578.211 1.064.631 1.459.421.394.933.71 1.538.946.604.21 1.498.486 2.68.828 1.577.42 2.865.854 3.864 1.3a6.993 6.993 0 0 1 2.641 1.893c.736.84 1.117 1.958 1.144 3.35 0 1.236-.342 2.34-1.025 3.313-.684.972-1.656 1.734-2.918 2.286-1.235.552-2.694.828-4.376.828ZM188 47.562c0 .814-.053 1.55-.158 2.207h-16.597c.131 1.735.775 3.128 1.932 4.18 1.156 1.05 2.575 1.576 4.257 1.576 2.418 0 4.127-1.012 5.126-3.035h4.849c-.657 1.997-1.853 3.64-3.588 4.928-1.708 1.261-3.837 1.892-6.387 1.892-2.076 0-3.942-.46-5.598-1.38-1.629-.946-2.917-2.26-3.863-3.942-.92-1.709-1.38-3.68-1.38-5.914 0-2.234.447-4.192 1.34-5.874.92-1.708 2.195-3.023 3.824-3.942 1.656-.92 3.548-1.38 5.677-1.38 2.05 0 3.877.447 5.48 1.34a9.438 9.438 0 0 1 3.746 3.785c.893 1.603 1.34 3.456 1.34 5.559Zm-4.691-1.42c-.027-1.655-.618-2.983-1.775-3.981-1.156-1-2.588-1.498-4.297-1.498-1.55 0-2.878.499-3.982 1.498-1.103.972-1.76 2.3-1.971 3.981h12.025Z"/>
  <path fill="#38B8B1" d="M173.169 62.682V69h-1.539v-2.601h-2.394V69h-1.539v-6.318h1.539v2.475h2.394v-2.475h1.539Zm2.623 0v3.78c0 .378.093.669.279.873.186.204.459.306.819.306.36 0 .636-.102.828-.306.192-.204.288-.495.288-.873v-3.78h1.539v3.771c0 .564-.12 1.041-.36 1.431-.24.39-.564.684-.972.882a3.014 3.014 0 0 1-1.35.297c-.498 0-.945-.096-1.341-.288a2.223 2.223 0 0 1-.927-.882c-.228-.396-.342-.876-.342-1.44v-3.771h1.539Zm8.658 3.078c.366.078.66.261.882.549.222.282.333.606.333.972 0 .528-.186.948-.558 1.26-.366.306-.879.459-1.539.459h-2.943v-6.318h2.844c.642 0 1.143.147 1.503.441.366.294.549.693.549 1.197 0 .372-.099.681-.297.927-.192.246-.45.417-.774.513Zm-2.286-.522h1.008c.252 0 .444-.054.576-.162.138-.114.207-.279.207-.495 0-.216-.069-.381-.207-.495-.132-.114-.324-.171-.576-.171h-1.008v1.323Zm1.134 2.52c.258 0 .456-.057.594-.171.144-.12.216-.291.216-.513a.645.645 0 0 0-.225-.522c-.144-.126-.345-.189-.603-.189h-1.116v1.395h1.134Z"/>
  <rect width="6" height="6" x="160" y="63" fill="#38B8B1" rx="1"/>
  <defs>
    <clipPath id="a">
      <path fill="#fff" d="M0 0h86.456v54.172H0z" transform="rotate(-33.256 102.493 -53.7)"/>
    </clipPath>
  </defs>
</svg>
