<svg xmlns="http://www.w3.org/2000/svg" width="37" height="23" fill="none" viewBox="0 0 37 23">
  <g clip-path="url(#a)">
    <path fill="#38B8B1" d="M17.296 22.695c-.988-.5-1.504-1.275-1.476-2.37.028-1.064.598-1.768 1.535-2.21.133-.062.285-.118.378-.221.079-.087.148-.268.108-.355-.05-.104-.21-.186-.337-.216-.1-.023-.228.03-.333.076-1.277.548-2.004 1.511-2.125 2.9-.03.358-.18.566-.511.671-2.003.634-3.773-.529-4.11-2.299-.016-.083-.031-.166-.052-.248-.096-.385-.297-.487-.68-.386-.386.1-.774.223-1.167.252-1.114.083-2.275-.797-2.52-1.867-.097-.425-.008-.542.407-.653a38.44 38.44 0 0 0 2.06-.6c.317-.103.518.01.738.204.797.707 1.728.993 2.784.828.225-.035.455-.11.652-.222.098-.056.193-.255.166-.357-.027-.1-.201-.205-.325-.226-.147-.025-.311.03-.465.065-.758.173-1.447-.003-2.076-.428-.372-.25-.37-.442-.05-.757.157-.155.327-.309.438-.495.06-.1.058-.317-.011-.391-.071-.075-.272-.08-.394-.042-.133.04-.245.159-.358.253C8.148 14.792 6.518 15.271 4.68 15c-1.88-.278-3.312-1.231-4.304-2.858-.24-.394-.228-.732.01-1.117.936-1.518 2.297-2.415 4.023-2.776.648-.135.777-.024 1.092.554.209.384.486.736.77 1.072.306.362.367.546.135.965-.393.708-.959 1.2-1.783 1.338-.073.013-.146.023-.218.04-.206.052-.404.133-.369.391.034.245.238.316.45.31.795-.026 1.444-.383 1.975-.945.243-.258.441-.566.621-.874.258-.441.308-.48.803-.387a3.137 3.137 0 0 0 1.685-.116c.117-.043.253-.09.327-.18.077-.091.154-.267.115-.351-.049-.104-.211-.186-.338-.21-.113-.023-.245.042-.366.076-1.486.406-2.816-.286-3.271-1.752-.297-.956-.053-1.827.632-2.545.697-.73 1.575-.894 2.537-.683.258.057.37.254.427.498.08.338.165.676.267 1.008.042.138.106.298.212.381.114.09.322.177.428.13.097-.044.136-.267.153-.416.01-.093-.066-.196-.107-.293-.836-2.012.641-4.25 2.815-4.241.373.001.75.08 1.118.161.346.078.497.318.534.688.134 1.336.79 2.316 2.05 2.85.133.055.29.106.426.088.114-.015.274-.114.305-.21.03-.095-.053-.258-.136-.344-.09-.094-.233-.137-.356-.197-1.183-.577-1.732-1.625-1.492-2.85.213-1.085 1.295-1.967 2.499-2.03 1.082-.058 1.887.42 2.482 1.297.065.096.12.2.195.288.203.233.417.233.712-.034.685-.62 1.493-.866 2.395-.79 1.14.097 2.024.628 2.574 1.651.28.519.223.739-.206 1.134-.672.62-.97 1.39-.911 2.3.041.646-.038.774-.63 1.042a3.45 3.45 0 0 1-1.6.315 2.35 2.35 0 0 0-.69.05c-.111.029-.255.188-.262.296-.006.108.116.274.225.327.154.075.347.095.522.094.801-.008 1.574-.154 2.3-.51.522-.257.526-.257.951.164.41.406.902.66 1.465.767.17.033.364.036.528-.012.105-.03.238-.175.245-.276.008-.103-.103-.245-.2-.315-.096-.068-.24-.074-.363-.096-1.116-.204-1.874-1.152-1.78-2.231.096-1.096 1.01-1.896 2.144-1.92 1.816-.038 3.169 1.521 3.375 2.861.274 1.78-.773 3.299-2.13 3.795-.364.132-.78.176-1.171.169-2.078-.036-4.156-.118-6.234-.151-1.319-.021-2.642-.034-3.958.038-1.653.09-3.3.271-4.95.415a1.015 1.015 0 0 0-.215.05c-.213.068-.42.165-.367.433.051.263.274.294.5.27.366-.04.731-.096 1.099-.13.987-.094 1.973-.24 2.962-.258 2.807-.054 5.616-.102 8.423-.064 2.86.039 5.692.364 8.406 1.334.82.293 1.605.696 2.38 1.097.538.278.525.836-.016 1.126-.145.078-.428.041-.577-.054-1.281-.81-2.678-1.34-4.132-1.73-.564-.152-1.13-.331-1.795-.221.097.131.162.243.25.332.156.158.327.3.488.452 1.256 1.18 1.317 2.928.697 4.116-.67 1.286-2.069 2.083-3.643 1.756-.905-.189-1.51-1.037-1.505-2.015.005-.969.61-1.756 1.516-1.974.195-.047.404-.07.576-.16.108-.057.228-.227.216-.333-.01-.107-.16-.24-.279-.286-.127-.049-.291-.029-.434-.005a2.79 2.79 0 0 0-1.59.854c-.32.336-.41.347-.825.123-.694-.374-1.448-.516-2.222-.568-.196-.013-.415 0-.588.078-.135.062-.286.236-.303.375-.026.222.176.318.383.33.38.023.768-.012 1.136.06.44.087.87.242 1.29.4.3.114.425.364.383.69-.134 1.058.218 1.931 1.019 2.626.273.238.29.51.17.83-.4 1.069-1.548 1.826-2.796 1.836-.832.006-1.579-.216-2.22-.771-.381-.33-.647-.3-.872.13-.619 1.177-2.215 1.752-3.595 1.124Zm-1.294-7.693c.152-.042.304-.087.457-.124 1.922-.462 4 .952 4.291 2.908.047.318-.003.596-.23.816-.38.364-.774.713-1.162 1.068-.168.155-.353.327-.178.564.18.242.414.141.621.012.116-.072.23-.152.331-.243.283-.254.565-.508.835-.774.214-.21.428-.236.681-.077.241.152.487.298.742.424.235.117.48.222.73.298.202.061.415.032.502-.203.083-.225-.064-.362-.24-.456-.186-.1-.381-.182-.575-.265-.756-.323-1.358-.773-1.4-1.688 0-.01-.004-.02-.007-.03-.52-1.635-1.611-2.702-3.279-3.064-1.533-.332-2.905.088-4.031 1.211-.285.284-.345.566-.153.712.279.212.452-.028.657-.171.446-.312.906-.603 1.408-.918Zm-1.675-6.994c2.557 2.16 6.31.972 7.101-2.282.166-.68.499-1.11 1.102-1.386.21-.096.419-.199.627-.301.104-.051.234-.085.3-.169.081-.103.182-.285.141-.368-.053-.11-.232-.205-.364-.216-.146-.011-.31.06-.45.13-.386.193-.771.39-1.143.61-.26.152-.46.125-.68-.08a18.661 18.661 0 0 0-1.078-.927c-.314-.25-.55-.273-.662-.078-.172.303.074.46.257.63.338.317.683.626 1.016.948a.884.884 0 0 1 .259.899c-.068.264-.125.537-.237.784a3.623 3.623 0 0 1-5.757 1.214c-.126-.112-.236-.26-.382-.327-.123-.056-.36-.08-.418-.01-.082.097-.104.32-.049.443.079.174.25.306.416.486Z"/>
  </g>
  <defs>
    <clipPath id="a">
      <path fill="#fff" d="M0 0h37v23H0z"/>
    </clipPath>
  </defs>
</svg>
