<svg xmlns="http://www.w3.org/2000/svg" width="114" height="57" fill="none" viewBox="0 0 114 57">
  <g clip-path="url(#a)">
    <path fill="#38B8B1" fill-opacity=".42" d="M66.302 42.416c-1.562.17-2.78-.356-3.604-1.685-.8-1.293-.676-2.576.088-3.832.108-.178.244-.362.274-.558.025-.165-.034-.435-.15-.507-.14-.087-.394-.059-.568.004-.137.049-.247.213-.335.348-1.084 1.648-1.191 3.362-.246 5.115.243.452.228.817-.082 1.2-1.876 2.313-4.883 2.299-6.67.447-.083-.087-.166-.174-.255-.256-.415-.385-.734-.352-1.11.067-.376.42-.74.867-1.183 1.208-1.255.965-3.32.816-4.449-.273-.447-.431-.433-.64-.028-1.095a54.073 54.073 0 0 0 1.972-2.317c.293-.37.62-.392 1.032-.33 1.498.226 2.826-.156 3.947-1.174a2.72 2.72 0 0 0 .599-.772c.072-.144.03-.455-.082-.555-.112-.1-.4-.09-.563-.018-.194.085-.345.278-.5.44-.762.795-1.716 1.12-2.795 1.102-.637-.01-.785-.24-.653-.866.065-.308.146-.623.132-.931-.008-.166-.18-.425-.32-.459-.142-.035-.384.116-.498.256-.126.152-.166.38-.226.58-.755 2.53-2.312 4.367-4.703 5.472-2.445 1.129-4.889 1.102-7.338-.07-.592-.283-.844-.697-.864-1.341-.079-2.54.831-4.669 2.594-6.441.661-.666.901-.634 1.727-.187.548.296 1.152.502 1.75.682.648.194.864.367.917 1.048.09 1.15-.196 2.176-1.064 2.983-.076.072-.156.14-.227.218-.203.221-.374.472-.13.753.23.266.529.192.775.019.922-.647 1.412-1.578 1.6-2.663.086-.496.08-1.018.051-1.525-.04-.728-.01-.815.648-1.087.762-.315 1.411-.781 1.906-1.447.106-.142.23-.304.248-.469.019-.17-.027-.44-.14-.51-.139-.085-.396-.057-.565.011-.151.062-.256.243-.375.377-1.442 1.64-3.56 1.846-5.248.449-1.1-.91-1.493-2.14-1.243-3.53.254-1.415 1.166-2.291 2.47-2.787.352-.133.637.016.897.263.36.342.724.679 1.105.996.159.133.359.273.55.291.206.02.52-.04.608-.179.08-.127-.047-.424-.143-.615-.06-.119-.232-.182-.357-.267-2.566-1.753-2.568-5.572.014-7.252.443-.288.952-.489 1.45-.676.472-.177.84-.007 1.173.406 1.205 1.492 2.75 2.153 4.66 1.81.202-.036.427-.098.574-.224.124-.107.236-.35.196-.489-.038-.135-.264-.266-.429-.305-.18-.042-.384.019-.577.042-1.853.23-3.324-.595-3.999-2.245-.598-1.46-.006-3.355 1.37-4.366 1.237-.91 2.565-.964 3.957-.38.152.064.299.148.456.193.423.121.677-.045.818-.594.326-1.271 1.09-2.194 2.219-2.803 1.427-.771 2.89-.823 4.343-.03.737.403.842.71.643 1.515-.311 1.262-.06 2.415.723 3.456.555.738.561.953.07 1.733a4.855 4.855 0 0 1-1.65 1.62c-.28.166-.562.355-.778.594-.11.122-.155.424-.079.558.077.134.353.237.523.216.24-.03.485-.156.692-.294.943-.631 1.745-1.406 2.325-2.395.418-.712.422-.716 1.257-.544a3.924 3.924 0 0 0 2.335-.22c.229-.095.46-.242.617-.427.1-.118.144-.393.074-.52-.072-.128-.314-.212-.485-.22-.166-.008-.34.098-.504.167-1.483.624-3.123.08-3.856-1.281-.745-1.384-.288-3.05 1.036-3.96 2.122-1.456 4.946-.645 6.24.796 1.719 1.913 1.668 4.54.448 6.187-.327.44-.787.816-1.255 1.111-2.49 1.572-5.016 3.089-7.504 4.664-1.58 1-3.157 2.012-4.66 3.12-1.888 1.393-3.698 2.89-5.54 4.343-.081.064-.15.146-.216.227-.199.245-.367.522-.096.801.267.274.555.139.803-.065.404-.333.793-.683 1.2-1.01 1.097-.879 2.152-1.819 3.31-2.61 3.283-2.245 6.573-4.485 9.929-6.62 3.418-2.176 7.03-3.988 11.004-4.938 1.201-.288 2.447-.416 3.68-.54.855-.086 1.276.59.862 1.358-.11.205-.474.381-.725.384-2.154.027-4.223.48-6.252 1.143-.787.257-1.598.484-2.3 1.132.219.08.383.163.557.202.308.067.622.104.932.16 2.413.435 3.854 2.475 4.05 4.375.213 2.057-.82 4.095-2.942 4.927-1.22.479-2.6-.064-3.36-1.237-.753-1.16-.652-2.57.25-3.536.194-.207.423-.396.557-.639.083-.15.092-.447-.004-.564-.098-.12-.38-.163-.555-.125-.19.04-.369.192-.519.331-.657.61-1.054 1.366-1.214 2.255-.117.651-.215.734-.881.789-1.116.092-2.12.508-3.078 1.047-.243.136-.493.322-.636.551-.112.178-.155.503-.065.682.142.286.457.244.712.097.467-.267.9-.61 1.393-.81.588-.239 1.219-.387 1.843-.524.442-.098.787.104.993.525.67 1.369 1.77 2.137 3.264 2.345.51.071.743.383.852.858.362 1.589-.405 3.384-1.876 4.366-.98.654-2.04.968-3.234.805-.71-.098-1.002.144-.933.831.19 1.888-1.25 3.815-3.378 4.138Zm-7.559-8.184c.149-.167.293-.34.446-.503 1.916-2.045 5.485-1.971 7.361.14.306.342.464.713.366 1.153-.163.73-.358 1.452-.54 2.178-.078.315-.162.664.232.811.402.15.6-.152.745-.468.08-.176.152-.36.201-.547.137-.523.271-1.046.384-1.573.088-.417.321-.615.747-.621.404-.006.81-.022 1.21-.07.37-.043.742-.108 1.098-.212.288-.084.517-.284.436-.633-.077-.333-.36-.381-.642-.357-.298.026-.593.08-.888.13-1.149.201-2.215.133-2.981-.928a.162.162 0 0 0-.033-.031c-1.896-1.547-4.024-1.975-6.283-1.11-2.076.793-3.373 2.361-3.828 4.578-.115.56.035.944.376.969.497.036.514-.386.645-.716.285-.718.6-1.424.948-2.19Zm-7.462-7.051c4.722.594 8.238-3.742 6.627-8.244-.336-.94-.278-1.712.22-2.51.175-.28.341-.563.508-.847.082-.142.21-.284.222-.434.016-.187-.007-.483-.12-.55-.15-.09-.436-.065-.601.025-.182.1-.32.313-.43.504-.308.53-.609 1.067-.879 1.617-.189.385-.446.506-.868.432a26.416 26.416 0 0 0-2.002-.268c-.57-.056-.867.101-.846.42.033.496.448.493.798.555.649.114 1.3.215 1.947.34.494.097.843.392 1.01.873.127.369.272.74.334 1.12.566 3.513-2.367 6.465-5.871 5.924-.237-.036-.482-.126-.709-.093-.19.028-.488.183-.503.311-.021.181.127.464.29.568.228.147.536.17.873.257Z"/>
  </g>
  <path fill="#000" d="M2.725 24.514c.462-.606 1.092-1.116 1.889-1.53.797-.415 1.697-.622 2.701-.622 1.148 0 2.192.287 3.132.86.956.558 1.705 1.347 2.247 2.367.542 1.02.813 2.192.813 3.515 0 1.322-.271 2.51-.813 3.562-.542 1.036-1.29 1.848-2.247 2.438-.94.574-1.984.86-3.132.86-1.004 0-1.896-.199-2.677-.597-.781-.414-1.419-.924-1.913-1.53v8.176H0V22.577h2.725v1.937Zm8.009 4.59c0-.909-.191-1.69-.574-2.343-.367-.67-.86-1.172-1.482-1.506a3.847 3.847 0 0 0-1.96-.526c-.686 0-1.34.175-1.96.526-.606.35-1.1.86-1.483 1.53-.366.669-.55 1.458-.55 2.366 0 .909.184 1.706.55 2.391.383.67.877 1.18 1.482 1.53a3.94 3.94 0 0 0 1.96.526c.702 0 1.355-.175 1.96-.526.622-.367 1.117-.893 1.483-1.578.383-.685.574-1.482.574-2.39Zm8.193-11.045v17.69h-2.725V18.06h2.725Zm2.67 11.045c0-1.323.27-2.495.813-3.515.558-1.02 1.306-1.808 2.247-2.366a6.018 6.018 0 0 1 3.155-.86c1.036 0 1.937.206 2.702.62.78.4 1.402.901 1.865 1.507v-1.913h2.749V35.75h-2.75v-1.96c-.462.622-1.091 1.14-1.888 1.554-.797.414-1.705.622-2.725.622a5.853 5.853 0 0 1-3.108-.861c-.94-.59-1.69-1.402-2.247-2.438-.542-1.052-.813-2.24-.813-3.562Zm10.782.047c0-.908-.192-1.697-.574-2.366-.367-.67-.853-1.18-1.459-1.53a3.847 3.847 0 0 0-1.96-.526c-.701 0-1.354.175-1.96.526-.606.334-1.1.836-1.482 1.506-.367.653-.55 1.434-.55 2.343 0 .908.183 1.705.55 2.39.382.685.876 1.211 1.482 1.578.621.35 1.275.526 1.96.526a3.84 3.84 0 0 0 1.96-.526c.606-.35 1.092-.86 1.459-1.53.382-.685.574-1.482.574-2.39Zm12.974-6.789c1.036 0 1.96.215 2.773.646a4.573 4.573 0 0 1 1.937 1.912c.462.845.693 1.865.693 3.06v7.77h-2.702v-7.364c0-1.179-.294-2.08-.884-2.701-.59-.637-1.395-.956-2.415-.956s-1.832.319-2.438.956c-.59.622-.885 1.522-.885 2.701v7.363h-2.725V22.577h2.725v1.506a4.531 4.531 0 0 1 1.698-1.267 5.55 5.55 0 0 1 2.223-.454ZM57.412 24.8v7.292c0 .494.111.852.334 1.076.24.207.638.31 1.196.31h1.673v2.271h-2.151c-1.228 0-2.168-.286-2.821-.86-.654-.574-.98-1.506-.98-2.797V24.8h-1.554v-2.224h1.553v-3.275h2.75v3.275h3.203V24.8h-3.203Zm23.405-2.223L76.73 35.75h-2.868l-2.654-9.73-2.653 9.73h-2.87l-4.111-13.172h2.773l2.75 10.59 2.796-10.59h2.845l2.678 10.543 2.725-10.543h2.677Zm3.423-1.745c-.493 0-.908-.167-1.243-.502a1.688 1.688 0 0 1-.502-1.243c0-.494.168-.909.502-1.243.335-.335.75-.502 1.243-.502.479 0 .885.167 1.22.502.334.334.502.749.502 1.243 0 .494-.168.908-.502 1.243a1.66 1.66 0 0 1-1.22.502Zm1.34 1.745V35.75h-2.726V22.577h2.725Zm8.359 13.388c-1.036 0-1.969-.184-2.797-.55-.813-.383-1.459-.893-1.937-1.53a3.87 3.87 0 0 1-.765-2.176h2.821c.048.558.31 1.028.789 1.41.494.367 1.108.55 1.84.55.766 0 1.355-.143 1.77-.43.43-.302.645-.685.645-1.147 0-.494-.239-.86-.717-1.1-.462-.239-1.203-.502-2.223-.789-.988-.27-1.793-.534-2.415-.789a4.333 4.333 0 0 1-1.625-1.171c-.447-.526-.67-1.22-.67-2.08 0-.701.207-1.339.622-1.912.414-.59 1.004-1.052 1.769-1.387.78-.335 1.673-.502 2.677-.502 1.499 0 2.702.383 3.61 1.148.925.749 1.419 1.777 1.482 3.083H96.09c-.048-.59-.287-1.06-.717-1.41-.43-.35-1.012-.526-1.745-.526-.717 0-1.267.136-1.65.406-.382.271-.573.63-.573 1.076 0 .35.127.646.382.885s.566.43.932.573c.367.128.909.295 1.626.502.956.256 1.737.518 2.343.79a4.24 4.24 0 0 1 1.601 1.147c.447.51.678 1.187.694 2.032 0 .749-.208 1.418-.622 2.008-.414.59-1.004 1.052-1.769 1.387-.749.334-1.633.502-2.653.502ZM114 28.84c0 .495-.032.94-.096 1.34H103.84c.08 1.051.47 1.896 1.171 2.533.702.638 1.562.957 2.582.957 1.466 0 2.502-.614 3.108-1.841h2.94c-.398 1.211-1.123 2.207-2.175 2.988-1.036.765-2.327 1.148-3.873 1.148-1.259 0-2.39-.28-3.394-.837a6.243 6.243 0 0 1-2.343-2.39c-.558-1.037-.837-2.232-.837-3.587 0-1.354.271-2.542.813-3.562.558-1.036 1.331-1.832 2.319-2.39 1.004-.558 2.151-.837 3.442-.837 1.243 0 2.351.271 3.323.813a5.724 5.724 0 0 1 2.271 2.295c.542.972.813 2.096.813 3.37Zm-2.845-.86c-.016-1.004-.374-1.809-1.076-2.415-.701-.605-1.569-.908-2.605-.908-.941 0-1.745.303-2.415.909-.669.59-1.068 1.394-1.195 2.414h7.291Z"/>
  <path fill="#38B8B1" d="M105.007 38.01v3.83h-.934v-1.577h-1.451v1.578h-.934v-3.832h.934v1.501h1.451v-1.5h.934Zm1.59 0v2.29c0 .23.057.406.169.53.113.123.279.185.497.185.218 0 .386-.061.502-.185.116-.124.175-.3.175-.53v-2.29h.933v2.287c0 .342-.073.631-.218.868a1.395 1.395 0 0 1-.59.535c-.244.12-.516.18-.818.18-.302 0-.573-.058-.814-.175a1.355 1.355 0 0 1-.562-.535c-.138-.24-.207-.531-.207-.873V38.01h.933Zm5.251 1.866a.88.88 0 0 1 .534.333.924.924 0 0 1 .202.59c0 .32-.112.574-.338.763-.222.186-.533.279-.933.279h-1.785v-3.832h1.725c.389 0 .693.09.911.268.222.178.333.42.333.726a.868.868 0 0 1-.649.873Zm-1.387-.317h.612c.152 0 .269-.032.349-.098.084-.07.125-.17.125-.3 0-.131-.041-.231-.125-.3-.08-.07-.197-.104-.349-.104h-.612v.802Zm.688 1.528c.157 0 .277-.034.36-.103a.381.381 0 0 0 .131-.311.39.39 0 0 0-.136-.317.537.537 0 0 0-.366-.115h-.677v.846h.688Z"/>
  <rect width="3.638" height="3.638" x="97.021" y="38.202" fill="#38B8B1" rx="1"/>
  <defs>
    <clipPath id="a">
      <path fill="#fff" d="M0 0h52.425v32.849H0z" transform="rotate(-33.256 62.15 -32.563)"/>
    </clipPath>
  </defs>
</svg>
