<svg xmlns="http://www.w3.org/2000/svg" width="63" height="46" fill="none" viewBox="0 0 63 46">
  <path fill="currentColor" d="M39.566 43.058c-2.11.23-3.757-.476-4.869-2.26-1.081-1.733-.913-3.455.12-5.14.145-.238.33-.485.37-.748.033-.221-.047-.584-.203-.68-.19-.117-.532-.08-.768.005-.185.066-.333.286-.453.467-1.463 2.21-1.608 4.51-.332 6.861.33.607.309 1.096-.11 1.609-2.534 3.104-6.597 3.085-9.01.6-.113-.116-.225-.233-.345-.343-.561-.517-.991-.471-1.499.09-.509.564-1.001 1.163-1.6 1.62-1.694 1.294-4.484 1.094-6.008-.365-.604-.58-.586-.859-.038-1.47a72.645 72.645 0 0 0 2.663-3.108c.396-.495.837-.525 1.395-.442 2.023.303 3.817-.21 5.332-1.575a3.68 3.68 0 0 0 .808-1.036c.099-.193.04-.61-.11-.745-.15-.133-.54-.119-.76-.023-.262.114-.467.373-.675.589-1.03 1.067-2.32 1.503-3.777 1.479-.86-.014-1.06-.322-.881-1.162.087-.412.197-.835.177-1.249-.01-.222-.242-.57-.431-.615-.193-.047-.52.156-.674.343-.17.204-.224.51-.305.78-1.02 3.392-3.123 5.856-6.353 7.338-3.303 1.514-6.604 1.479-9.913-.093-.8-.38-1.14-.935-1.167-1.8-.107-3.407 1.123-6.262 3.504-8.64.894-.892 1.218-.85 2.333-.25.74.397 1.557.673 2.365.914.875.261 1.167.494 1.238 1.406.121 1.544-.265 2.92-1.437 4.002-.104.096-.21.189-.306.292-.276.297-.507.634-.178 1.01.313.357.716.258 1.049.026 1.244-.868 1.906-2.117 2.16-3.572.117-.666.108-1.366.07-2.046-.053-.976-.015-1.093.875-1.458 1.029-.422 1.907-1.048 2.575-1.941.142-.19.31-.408.334-.629.026-.227-.036-.59-.189-.683-.187-.116-.535-.078-.763.014-.204.083-.346.325-.506.505-1.948 2.2-4.81 2.476-7.09.602-1.486-1.221-2.016-2.87-1.68-4.735.344-1.898 1.576-3.073 3.34-3.738.473-.179.858.02 1.209.352.486.459.98.911 1.494 1.337.214.177.484.366.742.39.279.026.704-.053.822-.24.109-.17-.063-.568-.194-.825-.081-.16-.313-.245-.481-.359-3.467-2.35-3.47-7.474.018-9.727.599-.387 1.286-.656 1.96-.907.637-.237 1.133-.009 1.583.544 1.628 2.002 3.716 2.888 6.296 2.429.272-.049.576-.131.775-.302.167-.142.318-.469.265-.655-.052-.18-.357-.356-.58-.408-.242-.057-.519.024-.78.056-2.502.308-4.49-.8-5.401-3.011-.808-1.96-.01-4.502 1.85-5.858 1.671-1.22 3.465-1.292 5.346-.509.205.086.403.198.616.259.572.162.915-.061 1.105-.797.44-1.706 1.472-2.943 2.997-3.76 1.928-1.035 3.904-1.105 5.867-.04.996.54 1.138.952.87 2.032-.422 1.693-.081 3.24.975 4.635.75.99.759 1.279.094 2.325a6.538 6.538 0 0 1-2.227 2.172c-.38.223-.76.478-1.051.798-.149.164-.211.57-.107.749.104.18.476.318.706.29.325-.04.656-.21.935-.395 1.274-.847 2.357-1.886 3.14-3.213.565-.955.57-.96 1.698-.73a5.334 5.334 0 0 0 3.155-.296c.309-.126.621-.323.834-.57.135-.16.194-.528.099-.699-.096-.172-.423-.284-.654-.295-.225-.01-.46.131-.682.224-2.003.837-4.218.108-5.209-1.719-1.006-1.856-.389-4.09 1.4-5.31 2.866-1.954 6.681-.866 8.43 1.066 2.32 2.566 2.252 6.09.604 8.3-.441.59-1.062 1.094-1.695 1.49-3.364 2.108-6.776 4.143-10.137 6.256-2.134 1.341-4.265 2.699-6.296 4.186-2.549 1.868-4.995 3.875-7.483 5.825-.11.086-.203.196-.291.305-.269.33-.497.7-.13 1.075.36.367.75.185 1.085-.088.545-.446 1.07-.916 1.622-1.355 1.48-1.178 2.906-2.44 4.469-3.5 4.436-3.013 8.88-6.017 13.414-8.882 4.617-2.918 9.495-5.348 14.865-6.623 1.622-.386 3.305-.558 4.972-.724 1.154-.115 1.723.792 1.164 1.821-.15.276-.64.512-.98.516-2.91.036-5.704.644-8.445 1.533-1.063.345-2.16.649-3.107 1.518.295.109.517.22.752.27.416.091.84.14 1.26.216 3.259.583 5.205 3.32 5.47 5.868.287 2.76-1.107 5.494-3.974 6.61-1.648.642-3.513-.087-4.54-1.66-1.017-1.557-.88-3.448.339-4.742.261-.278.571-.533.751-.857.112-.203.125-.6-.005-.758-.132-.16-.512-.218-.75-.168-.255.054-.497.258-.7.445-.888.819-1.424 1.832-1.64 3.024-.159.875-.291.985-1.19 1.059-1.508.124-2.865.682-4.159 1.405-.327.183-.665.432-.859.739-.15.239-.209.675-.088.915.192.383.618.326.963.13.63-.359 1.215-.818 1.88-1.087.796-.32 1.648-.52 2.49-.703.598-.131 1.064.14 1.342.704.905 1.836 2.392 2.867 4.409 3.146.69.095 1.004.513 1.15 1.15.49 2.132-.545 4.54-2.532 5.857-1.325.878-2.756 1.3-4.37 1.08-.958-.13-1.353.193-1.26 1.116.258 2.531-1.69 5.117-4.563 5.55ZM29.355 32.081c.2-.225.396-.455.603-.675 2.587-2.743 7.408-2.644 9.944.187.412.46.625.957.493 1.547-.22.979-.484 1.948-.728 2.922-.106.423-.22.891.312 1.088.543.201.81-.204 1.006-.627a4.51 4.51 0 0 0 .272-.735c.185-.7.367-1.402.518-2.11.12-.56.435-.824 1.01-.833a16.15 16.15 0 0 0 1.635-.093 9.15 9.15 0 0 0 1.483-.285c.39-.112.699-.38.59-.849-.105-.446-.487-.511-.868-.479-.402.035-.802.106-1.2.175-1.552.27-2.992.177-4.027-1.246a.214.214 0 0 0-.044-.041c-2.562-2.076-5.437-2.649-8.488-1.49-2.805 1.065-4.557 3.169-5.171 6.142-.155.752.046 1.267.508 1.3.67.048.694-.517.87-.96.386-.964.812-1.91 1.282-2.938Zm-10.08-9.459c6.379.797 11.127-5.02 8.952-11.058-.454-1.26-.376-2.297.297-3.367.236-.375.46-.756.685-1.137.112-.19.284-.38.301-.582.022-.25-.01-.647-.163-.738-.201-.12-.589-.086-.811.034-.246.134-.432.42-.582.677-.415.711-.821 1.43-1.186 2.168-.255.517-.603.68-1.172.58-.896-.156-1.8-.272-2.706-.36-.768-.074-1.17.136-1.142.564.045.665.605.66 1.078.744.876.153 1.756.289 2.63.457.667.129 1.139.526 1.364 1.171.172.494.368.991.451 1.503.765 4.71-3.197 8.67-7.93 7.946-.32-.05-.652-.17-.958-.125-.256.037-.66.245-.68.417-.028.243.173.622.391.762.31.197.725.228 1.18.344Z"/>
</svg>
